<?xml version="1.0" encoding="UTF-8"?>
<svg id="Capa_2" xmlns="http://www.w3.org/2000/svg" viewBox="0 0 498.44 153.55">
  <defs>
    <style>
      .cls-1 {
        fill: none;
      }

      .cls-2 {
        fill: #374151;
      }
    </style>
  </defs>
  <g id="Capa_1-2" data-name="Capa_1">
    <g id="nOgIYB.tif">
      <g>
        <path class="cls-1" d="M0,74.63C0,49.75,0,24.88,0,0c166.14,0,332.28,0,498.44,0v153.55H0C0,128.84,0,104.11,0,79.38c.07.25.18.5.21.75.46,3.92.64,7.89,1.41,11.75,3.43,17.07,11.62,31.54,24.84,42.9,18.72,16.08,40.43,21.84,64.66,17.17,15.66-3.02,29.03-10.61,39.85-22.32,16.86-18.24,23.56-39.86,20.03-64.4-2.45-17.03-10.02-31.73-22.58-43.53C108.4,2.88,84.74-3.63,57.98,2.65c-19.23,4.51-34.18,15.61-45.13,31.99C5.52,45.59,1.43,57.71.39,70.86.29,72.12.13,73.37,0,74.63ZM399.78,126c3.99-8.66,7.87-17.06,11.74-25.46.08.02.17.04.25.05v33.33h6.34v-40.14c-2.02,0-3.99.04-5.95-.02-.8-.03-1.2.22-1.53.96-2.65,5.96-5.33,11.91-8.01,17.86-.53,1.18-1.07,2.35-1.67,3.67-.3-.51-.51-.83-.7-1.17-3.8-6.79-7.6-13.59-11.41-20.38-.19-.35-.52-.86-.81-.87-1.81-.08-3.63-.04-5.42-.04v40.12h4.29v-33.96c4.35,8.8,8.56,17.31,12.88,26.05ZM319.42,53.07c.45.26.7.39.93.54,6.98,4.5,14.23,8.5,21.71,12.11,2.13,1.03,4.32,1.95,6.45,2.97,5.72,2.73,11.71,2.87,17.81,1.93,3.35-.51,6.31-1.79,8.73-4.28,1.04-1.07,1.46-2.2,1.28-3.62-.05,0-.09-.02-.11,0-.14.11-.28.22-.41.34-2.22,2.12-4.73,3.8-7.75,4.47-5.6,1.23-11.13.94-16.5-1.22-7.39-2.98-14.18-7.09-21.06-11.03-.08-.05-.13-.14-.27-.29.35-.07.61-.14.89-.18,3.55-.48,6.57-1.98,8.96-4.68,3.03-3.42,4.11-7.48,4.03-11.94-.11-6.17-2.91-10.88-8.16-13.91-5.17-2.97-10.41-2.38-15.42.72-.32.2-.65.38-1.06.61-.04-.86-.07-1.56-.1-2.23h-4.77v39.36h4.82v-9.66ZM166.25,15.67c0,.3,0,.55,0,.8.06,8.05.11,16.1.19,24.14.05,4.52.09,9.05.23,13.57.08,2.82,1.38,5.04,3.87,6.43,1.09.61,2.25,1.16,3.45,1.46,4.48,1.15,8.98,1.08,13.42-.21,5.63-1.65,8.31-5.35,8.31-11.21,0-11.25,0-22.5,0-33.75,0-.41,0-.82,0-1.22h-5.02c0,.49,0,.91,0,1.33,0,10.24,0,20.49,0,30.73,0,1.36,0,2.73-.08,4.09-.23,3.53-2.33,6.05-5.73,6.77-2.74.58-5.44.29-8.02-.81-2.36-1.01-3.5-2.9-3.54-5.43-.07-4.99-.12-9.98-.15-14.98-.03-6.9-.03-13.8-.05-20.7,0-.32,0-.63,0-1.01h-6.88ZM206.16,32.76c.07-.01.13-.02.2-.03.37.53.73,1.06,1.1,1.6,6.35,9.27,12.7,18.55,19.06,27.82.18.26.51.58.78.6,1.21.07,2.42.03,3.61.03V22.27h-4.04v29.84c-.33-.46-.49-.68-.65-.91-6.49-9.39-12.98-18.79-19.48-28.18-.21-.31-.52-.75-.8-.77-1.27-.08-2.55-.04-3.77-.04v39.88h3.99v-29.34ZM315.24,134.02c.87-.04,1.89-.02,2.88-.14,1.07-.13,2.14-.31,3.17-.59,14.66-4,18.54-19.63,12.08-29.68-4.91-7.64-14.32-11.4-23.68-9.08-14.77,3.66-19.53,19.53-12.36,30.52,4.12,6.32,10.34,8.95,17.9,8.97ZM399.74,62.55c.45,0,.84-.01,1.23,0,2.94.11,5.89.23,8.83.33,7.55.27,13.72-2.39,18.09-8.67,3.46-4.97,4.08-10.54,3.19-16.38-1.31-8.52-8.61-15.1-17.18-15.39-2.76-.1-5.53.12-8.29.16-1.93.03-3.87,0-5.87,0v39.93ZM466.37,62.31c3.99.14,7.86.44,11.73.39,7.33-.09,13.06-3.27,17-9.48,2.9-4.58,3.43-9.66,2.73-14.93-1.25-9.38-8.9-16.1-18.33-16.07-4.24.02-8.48.15-12.72.24-.13,0-.26.07-.41.1v39.74ZM166.88,93.79v39.94c.22.02.39.03.56.04,3.34.12,6.67.29,10.01.35,7.26.12,13.17-2.6,17.36-8.61,3.57-5.13,4.22-10.9,3.1-16.89-1.55-8.27-8.3-14.34-16.63-14.78-4.75-.25-9.53-.05-14.39-.05ZM285.92,125.9c-3.47,3.58-7.79,4.94-12.59,5.1-6.54.21-12.1-1.82-16.19-7.12-4.77-6.18-6.34-13.18-5.03-20.8,1.03-6,4.48-10.11,10.34-11.93,4.66-1.44,9.4-1.35,13.96.39,4.09,1.56,7.26,4.1,7.54,8.95h2.01c0-2.65.03-5.23-.03-7.81,0-.32-.39-.74-.71-.93-5.19-3.15-10.78-4.7-16.9-4.45-12.19.5-22.07,10.55-22.71,21.24-.56,9.29,2.67,16.69,10.54,21.78,6.21,4.02,13.12,4.59,20.23,3.3,4.29-.78,8.07-2.7,11.43-5.6-.62-.7-1.22-1.37-1.87-2.1ZM453.07,134.12c-.16-.5-.28-.95-.43-1.38-4.15-11.99-8.29-23.98-12.44-35.97-.33-.95-.4-2.27-1.07-2.74-.71-.5-2-.14-3.02-.26-.89-.1-1.24.26-1.52,1.07-4.36,12.33-8.75,24.66-13.14,36.98-.27.75-.5,1.51-.77,2.35,1.42,0,2.69-.07,3.94.02.88.06,1.24-.25,1.51-1.07,1.93-5.74,3.93-11.46,5.87-17.2.22-.64.54-.79,1.16-.78,1.87.04,3.74.01,5.61.01,2.08,0,2.07,0,2.7,2.02,1.75,5.64,3.51,11.28,5.27,16.95h6.32ZM373.77,23.77c-.87-.18-1.65-.21-2.3-.51-1.5-.69-3.02-1.09-4.68-1.05-3.6.08-6.19,1.81-7.68,4.99-1.46,3.11-.8,6.02,1.46,8.58,2.06,2.32,4.66,3.91,7.31,5.44,2.08,1.2,4.15,2.44,6.14,3.79,4.81,3.25,3.47,10.11-.18,12.65-4.3,3-11.22,3.13-15.92.11-1.94-1.25-3.38-2.88-4-5.15-.96-3.53.16-6.71,2.93-8.11,2.27-1.14,4.64-1.13,7-.25,1.08.4,1.64,1.21,1.65,2.4.03,1.89-.88,3.09-2.72,3.63-.27.08-.66.43-.64.61.04.3.32.66.59.82.29.17.69.16,1.05.19,2.62.19,4.8-1.27,5.1-3.46.27-1.99-.31-3.71-1.86-5.02-2.98-2.53-6.42-2.97-10.02-1.82-6.81,2.18-8.75,11.4-3.61,16.76,2.39,2.49,5.32,3.91,8.71,4.29,4.95.55,9.68,0,13.86-3.05,5.2-3.79,8.05-12.85.61-18.66-2.14-1.67-4.53-3.02-6.82-4.49-2.11-1.36-4.32-2.58-6.34-4.05-1.48-1.07-2.14-2.69-1.71-4.57.43-1.86,2.07-2.93,4.55-3.04,2.72-.13,4.55.86,5.24,2.86.12.34.21.69.26,1.04.11.74.19,1.48.28,2.22h1.72v-7.13ZM291.24,24.77c2.36,0,4.62-.08,6.88.03,1.35.06,2.72.28,4.02.65,2.29.65,3.35,2.08,3.56,4.45.04.42.08.84.12,1.3h2.22v-8.9h-22.11v40.44h22.12v-9.23h-2.21c-.04.36-.1.68-.12.99-.22,3.05-1.54,4.9-4.49,5.35-3.27.49-6.62.53-9.98.76v-22.59h9.2v-3.06h-9.21v-10.19ZM210.11,131.78v-22.34h8.91v-3.02h-8.93v-10.16c3.51.03,7-.3,10.41.63,2.17.59,3.39,2.04,3.62,4.3.05.49.13.97.2,1.44h2.12v-8.78h-21.62v40.08h21.61v-9.18h-2.1c-.06.4-.11.75-.16,1.11-.38,3.28-1.56,4.82-4.79,5.29-3.03.44-6.13.44-9.26.63ZM461.62,62.81c-.11-.34-.16-.5-.22-.67-4.47-12.94-8.94-25.88-13.4-38.82-.21-.61-.27-1.25-1.22-1.13-.84.11-1.64-.19-2.07,1.05-4.51,12.88-9.11,25.74-13.67,38.61-.1.28-.15.58-.25.96.78,0,1.43-.07,2.07.02.95.13,1.37-.24,1.67-1.15,1.93-5.74,3.93-11.46,5.88-17.19.21-.63.49-.91,1.21-.89,2.12.05,4.25.08,6.36,0,1.01-.04,1.42.27,1.71,1.24,1.7,5.66,3.46,11.31,5.24,16.94.12.39.53.98.83.99,1.9.09,3.8.05,5.86.05ZM249.18,22.25c.08.3.14.58.23.84,4.11,12.38,8.21,24.77,12.32,37.15.87,2.61.88,2.59,3.62,2.58.64,0,.92-.18,1.13-.82,4.2-12.92,8.43-25.82,12.65-38.74.1-.32.17-.65.26-1.02h-3.61c-3.45,10.71-6.89,21.4-10.33,32.09-.08,0-.15,0-.23.01-3.3-10.69-6.6-21.38-9.91-32.1h-6.13ZM342.75,93.82v40.27h21.35c0-2.94.01-5.8-.03-8.67,0-.24-.35-.64-.57-.67-.73-.08-1.48-.03-2.24-.03-.04.66-.04,1.27-.1,1.86-.28,2.47-1.96,4.54-4.06,4.64-3.07.14-6.16.04-9.35.04v-37.44h-5.01ZM237.96,22.25v40.45h5.18V22.25h-5.18ZM387.56,22.25v40.49h5.19V22.25h-5.19ZM375.72,93.86h-5.22v40.24h5.22v-40.24Z"/>
        <path class="cls-2" d="M0,74.63c.13-1.26.29-2.51.39-3.77,1.03-13.15,5.12-25.28,12.45-36.23C23.8,18.26,38.75,7.16,57.98,2.65c26.76-6.28,50.42.24,70.44,19.05,12.56,11.8,20.14,26.49,22.58,43.53,3.53,24.54-3.17,46.16-20.03,64.4-10.82,11.71-24.19,19.3-39.85,22.32-24.23,4.67-45.94-1.08-64.66-17.17-13.22-11.36-21.41-25.83-24.84-42.9-.77-3.85-.95-7.83-1.41-11.75-.03-.26-.14-.5-.21-.75,0-1.58,0-3.16,0-4.75ZM148.93,76.98c-.11-4.96-.54-9.82-1.55-14.61-3.5-16.66-11.56-30.73-24.67-41.62C103.86,5.08,82.23-.16,58.44,5.75,22.51,14.67-.85,49.44,3.85,86.18c2.06,16.08,8.68,30.06,19.92,41.72,12.88,13.37,28.64,20.89,47.22,22.26,13.36.99,26.12-1.44,37.89-7.81,25.95-14.03,38.76-36.23,40.04-65.38Z"/>
        <path class="cls-2" d="M399.78,126c-4.32-8.74-8.53-17.25-12.88-26.05v33.96h-4.29v-40.12c1.79,0,3.61-.04,5.42.04.29.01.62.52.81.87,3.81,6.79,7.61,13.59,11.41,20.38.19.34.4.67.7,1.17.6-1.32,1.14-2.49,1.67-3.67,2.68-5.95,5.37-11.9,8.01-17.86.33-.74.72-.99,1.53-.96,1.97.07,3.94.02,5.95.02v40.14h-6.34v-33.33c-.08-.02-.17-.04-.25-.05-3.87,8.4-7.75,16.81-11.74,25.46Z"/>
        <path class="cls-2" d="M319.42,53.07v9.66h-4.82V23.37h4.77c.03.67.06,1.37.1,2.23.41-.24.74-.42,1.06-.61,5.01-3.09,10.25-3.69,15.42-.72,5.26,3.02,8.05,7.74,8.16,13.91.08,4.46-1,8.53-4.03,11.94-2.39,2.7-5.41,4.2-8.96,4.68-.27.04-.54.11-.89.18.14.15.19.24.27.29,6.88,3.94,13.67,8.06,21.06,11.03,5.37,2.16,10.89,2.45,16.5,1.22,3.02-.66,5.53-2.35,7.75-4.47.13-.12.27-.23.41-.34.02-.02.07,0,.11,0,.19,1.42-.24,2.55-1.28,3.62-2.42,2.49-5.38,3.77-8.73,4.28-6.11.94-12.1.8-17.81-1.93-2.13-1.02-4.32-1.94-6.45-2.97-7.47-3.61-14.73-7.61-21.71-12.11-.23-.15-.48-.28-.93-.54ZM320.45,48.6c1.81.97,3.45,2.03,5.22,2.77,5.03,2.09,10.1.12,12.53-4.74,2.95-5.9,1.1-14.2-4.19-18.73-4.13-3.54-9.81-3.5-13.83.15-.41.37-.72,1.08-.73,1.64-.05,6.43-.03,12.86-.03,19.29,0,.3.04.59.08,1.13.41-.66.69-1.11.95-1.52Z"/>
        <path class="cls-2" d="M166.25,15.67h6.88c0,.38,0,.7,0,1.01.01,6.9.01,13.8.05,20.7.02,4.99.07,9.99.15,14.98.04,2.53,1.17,4.42,3.54,5.43,2.58,1.1,5.28,1.39,8.02.81,3.4-.72,5.5-3.24,5.73-6.77.09-1.36.08-2.73.08-4.09,0-10.24,0-20.49,0-30.73,0-.42,0-.84,0-1.33h5.02c0,.4,0,.81,0,1.22,0,11.25,0,22.5,0,33.75,0,5.87-2.67,9.56-8.31,11.21-4.43,1.3-8.94,1.36-13.42.21-1.2-.31-2.36-.86-3.45-1.46-2.49-1.39-3.79-3.6-3.87-6.43-.13-4.52-.18-9.05-.23-13.57-.08-8.05-.13-16.1-.19-24.14,0-.25,0-.49,0-.8Z"/>
        <path class="cls-2" d="M206.16,32.76v29.34h-3.99V22.22c1.22,0,2.5-.05,3.77.04.29.02.59.46.8.77,6.5,9.39,12.99,18.79,19.48,28.18.16.23.32.45.65.91v-29.84h4.04v40.5c-1.2,0-2.41.04-3.61-.03-.27-.01-.6-.33-.78-.6-6.36-9.27-12.71-18.54-19.06-27.82-.36-.53-.73-1.06-1.1-1.6-.07.01-.13.02-.2.03Z"/>
        <path class="cls-2" d="M315.24,134.02c-7.56-.02-13.78-2.65-17.9-8.97-7.17-10.99-2.41-26.86,12.36-30.52,9.36-2.32,18.77,1.43,23.68,9.08,6.46,10.05,2.57,25.68-12.08,29.68-1.04.28-2.11.46-3.17.59-1,.12-2.01.11-2.88.14ZM312.79,97.17c-1.75.35-3.59.47-5.22,1.11-5.37,2.1-7.83,6.31-8.2,11.92-.68,10.27,7.39,20.25,18.27,19.65,5.29-.29,9.63-2.26,12.26-7.08,1.73-3.17,1.76-6.6,1.07-10.06-1.49-7.52-8.82-15.56-18.17-15.54Z"/>
        <path class="cls-2" d="M399.74,62.55V22.62c2,0,3.94.02,5.87,0,2.77-.04,5.53-.26,8.29-.16,8.57.3,15.87,6.88,17.18,15.39.9,5.83.27,11.41-3.19,16.38-4.38,6.28-10.55,8.94-18.09,8.67-2.94-.11-5.89-.23-8.83-.33-.39-.01-.78,0-1.23,0ZM404.26,42.83c0,4.89.04,9.78-.03,14.66-.02,1.05.32,1.5,1.29,1.66,1.87.3,3.72.79,5.61.93,4.5.34,8.38-1.11,11.31-4.62,4.53-5.41,5.25-11.66,3.53-18.26-1.28-4.87-4.1-8.72-8.84-10.76-3.93-1.69-7.94-1.07-11.91.12-.75.23-.97.61-.97,1.38.04,4.96.02,9.92.02,14.88Z"/>
        <path class="cls-2" d="M466.37,62.31V22.57c.15-.04.28-.1.41-.1,4.24-.09,8.48-.22,12.72-.24,9.43-.03,17.08,6.69,18.33,16.07.7,5.26.17,10.34-2.73,14.93-3.93,6.21-9.67,9.39-17,9.48-3.87.05-7.75-.25-11.73-.39ZM470.97,42.65c0,4.99.02,9.99-.02,14.98,0,.74.19,1.12.93,1.26,1.62.31,3.21.79,4.84.97,4.99.53,9.36-.79,12.59-4.82,4.49-5.6,5.1-11.97,3.14-18.61-1.45-4.9-4.45-8.71-9.45-10.46-3.66-1.28-7.36-.73-11,.38-.77.23-1.06.58-1.05,1.43.05,4.96.02,9.91.02,14.87Z"/>
        <path class="cls-2" d="M166.88,93.79c4.86,0,9.64-.21,14.39.05,8.34.44,15.09,6.51,16.63,14.78,1.12,5.99.47,11.76-3.1,16.89-4.18,6.01-10.1,8.73-17.36,8.61-3.34-.06-6.67-.23-10.01-.35-.17,0-.34-.02-.56-.04v-39.94ZM171.38,114.09c0,5,.02,9.99-.02,14.99,0,.69.17,1.06.86,1.19,1.58.31,3.14.79,4.73.97,4.77.55,9.02-.59,12.27-4.32,4.57-5.24,5.34-11.4,3.83-17.9-1.16-5.02-3.96-9.02-8.8-11.18-3.88-1.73-7.86-1.19-11.8.02-.79.24-1.12.55-1.11,1.46.06,4.92.03,9.85.03,14.77Z"/>
        <path class="cls-2" d="M285.92,125.9c.65.73,1.25,1.4,1.87,2.1-3.36,2.9-7.14,4.82-11.43,5.6-7.11,1.29-14.02.72-20.23-3.3-7.88-5.09-11.1-12.49-10.54-21.78.64-10.69,10.53-20.73,22.71-21.24,6.13-.25,11.71,1.3,16.9,4.45.32.19.71.61.71.93.06,2.58.03,5.16.03,7.81h-2.01c-.28-4.85-3.45-7.4-7.54-8.95-4.56-1.73-9.31-1.83-13.96-.39-5.86,1.82-9.31,5.93-10.34,11.93-1.31,7.62.27,14.63,5.03,20.8,4.09,5.3,9.65,7.33,16.19,7.12,4.8-.16,9.12-1.52,12.59-5.1Z"/>
        <path class="cls-2" d="M453.07,134.12h-6.32c-1.76-5.66-3.52-11.31-5.27-16.95-.62-2.01-.61-2.02-2.7-2.02-1.87,0-3.74.02-5.61-.01-.62-.01-.95.15-1.16.78-1.94,5.74-3.94,11.45-5.87,17.2-.28.82-.63,1.13-1.51,1.07-1.25-.09-2.51-.02-3.94-.02.28-.84.51-1.6.77-2.35,4.38-12.33,8.78-24.65,13.14-36.98.28-.8.63-1.17,1.52-1.07,1.02.12,2.31-.24,3.02.26.67.47.74,1.79,1.07,2.74,4.15,11.99,8.3,23.98,12.44,35.97.15.44.28.88.43,1.38ZM436.6,100.98c-1.13,3.4-2.19,6.59-3.27,9.83h6.21c-.97-3.25-1.92-6.43-2.94-9.83Z"/>
        <path class="cls-2" d="M373.77,23.77v7.13h-1.72c-.09-.74-.17-1.48-.28-2.22-.05-.35-.14-.71-.26-1.04-.69-2-2.52-2.99-5.24-2.86-2.48.12-4.13,1.19-4.55,3.04-.43,1.88.23,3.5,1.71,4.57,2.03,1.47,4.23,2.69,6.34,4.05,2.29,1.47,4.68,2.83,6.82,4.49,7.45,5.81,4.59,14.87-.61,18.66-4.18,3.05-8.92,3.6-13.86,3.05-3.39-.38-6.32-1.8-8.71-4.29-5.14-5.36-3.19-14.58,3.61-16.76,3.6-1.15,7.04-.71,10.02,1.82,1.55,1.32,2.13,3.03,1.86,5.02-.3,2.19-2.48,3.65-5.1,3.46-.36-.03-.76-.02-1.05-.19-.28-.16-.55-.52-.59-.82-.02-.18.37-.53.64-.61,1.83-.54,2.74-1.75,2.72-3.63-.02-1.18-.57-2-1.65-2.4-2.36-.88-4.73-.89-7,.25-2.78,1.4-3.89,4.58-2.93,8.11.62,2.27,2.06,3.9,4,5.15,4.7,3.02,11.62,2.89,15.92-.11,3.65-2.54,4.99-9.4.18-12.65-1.99-1.34-4.05-2.59-6.14-3.79-2.66-1.53-5.26-3.12-7.31-5.44-2.27-2.56-2.92-5.47-1.46-8.58,1.49-3.18,4.08-4.91,7.68-4.99,1.66-.04,3.18.36,4.68,1.05.66.3,1.44.33,2.3.51Z"/>
        <path class="cls-2" d="M291.24,24.77v10.19h9.21v3.06h-9.2v22.59c3.36-.24,6.7-.27,9.98-.76,2.96-.45,4.27-2.3,4.49-5.35.02-.32.08-.63.12-.99h2.21v9.23h-22.12V22.29h22.11v8.9h-2.22c-.04-.45-.08-.87-.12-1.3-.2-2.37-1.27-3.81-3.56-4.45-1.3-.37-2.67-.58-4.02-.65-2.26-.1-4.52-.03-6.88-.03Z"/>
        <path class="cls-2" d="M210.11,131.78c3.12-.2,6.22-.19,9.26-.63,3.23-.47,4.41-2,4.79-5.29.04-.35.1-.71.16-1.11h2.1v9.18h-21.61v-40.08h21.62v8.78h-2.12c-.07-.46-.15-.95-.2-1.44-.23-2.26-1.45-3.7-3.62-4.3-3.41-.93-6.9-.6-10.41-.63v10.16h8.93v3.02h-8.91v22.34Z"/>
        <path class="cls-2" d="M461.62,62.81c-2.06,0-3.96.04-5.86-.05-.3-.01-.71-.6-.83-.99-1.78-5.64-3.54-11.28-5.24-16.94-.29-.97-.7-1.28-1.71-1.24-2.12.09-4.24.06-6.36,0-.72-.02-1,.26-1.21.89-1.95,5.73-3.95,11.45-5.88,17.19-.3.91-.72,1.28-1.67,1.15-.63-.08-1.29-.02-2.07-.02.1-.38.15-.68.25-.96,4.57-12.87,9.16-25.72,13.67-38.61.44-1.24,1.23-.94,2.07-1.05.95-.12,1.01.52,1.22,1.13,4.46,12.94,8.93,25.88,13.4,38.82.06.16.11.33.22.67ZM448.02,39.38c-1-3.33-1.96-6.53-2.98-9.95-1.15,3.44-2.22,6.66-3.32,9.95h6.3Z"/>
        <path class="cls-2" d="M249.18,22.25h6.13c3.31,10.71,6.61,21.41,9.91,32.1.08,0,.15,0,.23-.01,3.44-10.69,6.88-21.38,10.33-32.09h3.61c-.09.37-.16.7-.26,1.02-4.22,12.91-8.45,25.82-12.65,38.74-.21.64-.48.82-1.13.82-2.74,0-2.75.03-3.62-2.58-4.11-12.38-8.22-24.76-12.32-37.15-.09-.27-.15-.54-.23-.84Z"/>
        <path class="cls-2" d="M342.75,93.82h5.01v37.44c3.19,0,6.28.1,9.35-.04,2.1-.1,3.78-2.17,4.06-4.64.07-.6.07-1.2.1-1.86.76,0,1.51-.05,2.24.03.22.03.56.43.57.67.04,2.87.03,5.74.03,8.67h-21.35v-40.27Z"/>
        <path class="cls-2" d="M237.96,22.25h5.18v40.45h-5.18V22.25Z"/>
        <path class="cls-2" d="M387.56,22.25h5.19v40.49h-5.19V22.25Z"/>
        <path class="cls-2" d="M375.72,93.86v40.24h-5.22v-40.24h5.22Z"/>
        <path class="cls-1" d="M148.93,76.98c-1.28,29.14-14.1,51.34-40.04,65.38-11.77,6.37-24.54,8.79-37.89,7.81-18.58-1.37-34.34-8.89-47.22-22.26-11.24-11.66-17.86-25.64-19.92-41.72C-.85,49.44,22.51,14.67,58.44,5.75c23.79-5.91,45.42-.66,64.27,15,13.11,10.89,21.17,24.96,24.67,41.62,1.01,4.79,1.44,9.65,1.55,14.61ZM7.27,78.1c-.11,3.52.41,8.24,1.38,12.9,2.63,12.59,8.29,23.64,17,33.12,5.33,5.81,11.47,10.61,18.44,14.29,6.96,3.68,14.34,6.12,22.17,7.23,5.64.8,11.29.93,16.93.32,9.16-.99,17.78-3.72,25.86-8.22,5.5-3.06,10.53-6.73,14.95-11.16,14.49-14.53,21.36-32.13,20.71-52.6-.11-3.6-.55-7.23-1.27-10.76-3.22-15.77-10.98-28.94-23.23-39.4-10.1-8.62-21.78-13.82-34.93-15.63-4.45-.61-8.93-.95-13.43-.43-2.88.33-5.81.46-8.65,1.02-15.41,3-28.27,10.51-38.68,22.23-4.39,4.95-7.96,10.44-10.76,16.44-4.34,9.33-6.54,19.11-6.5,30.65Z"/>
        <path class="cls-1" d="M320.45,48.6c-.26.41-.54.86-.95,1.52-.04-.54-.08-.84-.08-1.13,0-6.43-.02-12.86.03-19.29,0-.56.32-1.26.73-1.64,4.02-3.65,9.7-3.69,13.83-.15,5.29,4.53,7.14,12.83,4.19,18.73-2.43,4.86-7.5,6.83-12.53,4.74-1.77-.74-3.41-1.8-5.22-2.77Z"/>
        <path class="cls-1" d="M312.79,97.17c9.34-.02,16.68,8.02,18.17,15.54.69,3.47.66,6.89-1.07,10.06-2.63,4.82-6.96,6.79-12.26,7.08-10.87.6-18.94-9.38-18.27-19.65.37-5.61,2.84-9.82,8.2-11.92,1.63-.64,3.48-.75,5.22-1.11Z"/>
        <path class="cls-1" d="M404.26,42.83c0-4.96.02-9.92-.02-14.88,0-.77.21-1.15.97-1.38,3.96-1.2,7.98-1.82,11.91-.12,4.74,2.04,7.57,5.89,8.84,10.76,1.73,6.59,1.01,12.84-3.53,18.26-2.93,3.5-6.81,4.95-11.31,4.62-1.88-.14-3.74-.62-5.61-.93-.97-.16-1.3-.61-1.29-1.66.07-4.89.03-9.77.03-14.66Z"/>
        <path class="cls-1" d="M470.97,42.65c0-4.96.02-9.92-.02-14.87,0-.84.29-1.19,1.05-1.43,3.64-1.11,7.34-1.66,11-.38,5,1.75,8,5.56,9.45,10.46,1.97,6.64,1.36,13.02-3.14,18.61-3.23,4.02-7.6,5.35-12.59,4.82-1.63-.17-3.22-.66-4.84-.97-.73-.14-.93-.52-.93-1.26.04-4.99.02-9.99.02-14.98Z"/>
        <path class="cls-1" d="M171.38,114.09c0-4.92.03-9.85-.03-14.77-.01-.92.32-1.22,1.11-1.46,3.94-1.21,7.92-1.75,11.8-.02,4.84,2.16,7.63,6.16,8.8,11.18,1.51,6.5.74,12.66-3.83,17.9-3.25,3.73-7.5,4.87-12.27,4.32-1.59-.18-3.15-.66-4.73-.97-.69-.14-.87-.5-.86-1.19.03-5,.02-9.99.02-14.99Z"/>
        <path class="cls-1" d="M436.6,100.98c1.02,3.4,1.97,6.58,2.94,9.83h-6.21c1.08-3.23,2.14-6.43,3.27-9.83Z"/>
        <path class="cls-1" d="M448.02,39.38h-6.3c1.1-3.29,2.17-6.51,3.32-9.95,1.03,3.42,1.98,6.62,2.98,9.95Z"/>
        <path class="cls-2" d="M7.27,78.1c-.04-11.54,2.16-21.33,6.5-30.65,2.79-6.01,6.36-11.49,10.76-16.44,10.41-11.72,23.26-19.23,38.68-22.23,2.84-.55,5.76-.69,8.65-1.02,4.5-.51,8.98-.18,13.43.43,13.16,1.81,24.84,7.01,34.93,15.63,12.25,10.46,20.01,23.63,23.23,39.4.72,3.53,1.15,7.16,1.27,10.76.65,20.48-6.22,38.08-20.71,52.6-4.42,4.43-9.45,8.1-14.95,11.16-8.08,4.5-16.7,7.23-25.86,8.22-5.64.61-11.29.48-16.93-.32-7.82-1.11-15.2-3.55-22.17-7.23-6.97-3.68-13.1-8.48-18.44-14.29-8.71-9.48-14.37-20.53-17-33.12-.98-4.66-1.49-9.38-1.38-12.9ZM76.94,143.22c1.06-.08,3.12-.26,5.18-.4,4.44-.31,8.73-1.29,12.97-2.59,4.8-1.47,9.33-3.55,13.68-6.06,3.86-2.23,7.47-4.81,10.72-7.83,2.51-2.33,4.79-4.91,7.07-7.47,2.89-3.23,5.19-6.89,7.22-10.7,2.86-5.36,4.96-11.01,6.26-16.97.9-4.12,1.49-8.29,1.51-12.48.02-3.92-.29-7.87-.85-11.75-.53-3.67-1.35-7.34-2.45-10.88-2.21-7.07-5.74-13.49-10.22-19.41-5.34-7.04-11.84-12.74-19.44-17.18-5.76-3.36-11.87-5.91-18.44-7.13-3.96-.74-7.99-1.36-12.01-1.52-3.89-.15-7.84.14-11.71.63-6.15.78-12.05,2.61-17.68,5.24-5.17,2.41-9.94,5.43-14.32,9.09-4.65,3.89-8.75,8.27-12.2,13.26-3.99,5.78-7,12.02-9.05,18.74-1.66,5.44-2.49,11.01-2.79,16.66-.24,4.5.13,8.99.88,13.42.93,5.53,2.47,10.91,4.82,16.01,4.19,9.14,9.99,17.09,17.71,23.61,5,4.22,10.45,7.67,16.43,10.28,8.19,3.58,16.79,5.27,26.72,5.4Z"/>
        <path class="cls-1" d="M76.94,143.22c-9.93-.13-18.53-1.82-26.72-5.4-5.98-2.62-11.43-6.06-16.43-10.28-7.73-6.52-13.52-14.47-17.71-23.61-2.34-5.1-3.88-10.49-4.82-16.01-.75-4.43-1.12-8.93-.88-13.42.3-5.65,1.13-11.22,2.79-16.66,2.05-6.72,5.06-12.96,9.05-18.74,3.45-4.99,7.55-9.37,12.2-13.26,4.38-3.66,9.16-6.68,14.32-9.09,5.63-2.63,11.52-4.46,17.68-5.24,3.87-.49,7.82-.78,11.71-.63,4.02.16,8.05.78,12.01,1.52,6.57,1.23,12.68,3.78,18.44,7.13,7.61,4.44,14.11,10.14,19.44,17.18,4.49,5.92,8.01,12.34,10.22,19.41,1.11,3.54,1.92,7.21,2.45,10.88.56,3.88.87,7.83.85,11.75-.02,4.19-.6,8.36-1.51,12.48-1.3,5.96-3.4,11.6-6.26,16.97-2.03,3.81-4.33,7.47-7.22,10.7-2.29,2.56-4.57,5.14-7.07,7.47-3.25,3.02-6.86,5.6-10.72,7.83-4.35,2.51-8.88,4.59-13.68,6.06-4.24,1.3-8.54,2.27-12.97,2.59-2.06.14-4.12.32-5.18.4ZM49.41,45.7c.04.06.09.11.14.16-1.95,1.83-4.28,2.99-6.86,3.88.97.56,1.92,1.07,2.93,1.36,2.58.75,5.11.26,7.59-.55.05.06.1.12.15.17-1.73,1.44-3.81,2.07-5.96,2.55v2.21c.44-.06.82-.1,1.2-.17,4.29-.78,8.27-2.4,11.98-4.64,3.31-1.99,6.8-3.79,9.03-7.18.15-.23.92-.28,1.27-.13.9.4,1.73.97,2.71,1.54.66-4.09,1.29-8.03,1.93-12.01,4.13,2.45,8.64,1.45,10.79-.14-.45-.3-.96-.54-1.32-.91-.79-.81-1.65-.91-2.78-.89-4.1.09-8.01-1.47-9.3-6.36-.08-.3-.34-.64-.61-.8-.77-.45-1.6-.81-2.4-1.21-.02.1-.04.19-.06.29-.42.03-.85.11-1.27.08-.71-.05-1.43-.27-2.13-.22-2.36.16-3.88,1.98-3.57,4.19.73-.25,1.45-.49,2.32-.79.06,1.68.79,2.87,2,3.77.49.37.95.79,1.48,1.08.58.32.71.74.59,1.33-.07.35-.11.71-.18,1.06-.61,3.43-1.92,6.53-4.42,9.04-2.82,2.83-7.76,3.34-10.71-.44-.62-.79-1.2-1.61-1.83-2.39-.85-1.05-1.05-2.11-.64-3.47.57-1.89.62-3.85-.57-5.6-2.44-3.59-7.06-4.93-10.97-3.03-4.08,1.98-6.72,5.09-7.42,9.76-.29,1.91-1.11,3.73-1.7,5.64,4.96-.57,8.06-3.82,10.61-7.86-.74,3.37-2.36,6.22-4.97,8.69,3.85.08,7.01-1.2,10.03-3.11-1.08,1.34-2.17,2.63-3.5,3.61-1.35.99-2.94,1.66-4.43,2.48,1.64.64,3.42.96,5.2.59,1.92-.4,3.78-1.06,5.66-1.61ZM41.88,51.3c0,1.99,0,4,0,6.01,0,2.02.32,4.1-1.28,5.82.07.06.15.12.22.18.91-.23,1.82-.46,2.74-.7.04.55,0,1.07.13,1.54.28,1.01.03,1.64-1.04,1.88-.68.15-.8.63-.79,1.29.03,5,.02,9.99.01,14.99,0,2.02.33,4.11-1.23,5.88,2.98.14,5.42-2.21,5.54-5.18.04-.94,0-1.88,0-2.83.04,0,.08,0,.12,0,.85,2.67,1.7,5.34,2.58,8.14-1.67.17-1.56,1.31-1.55,2.52.04,5.86.01,11.72.02,17.58,0,.46.01.94.12,1.39.26,1.03.96,1.58,2.02,1.62,1.02.04,1.72-.51,2.05-1.44.15-.43.17-.92.17-1.38.01-4.21,0-8.41,0-12.62,0-.35.03-.71.05-1.06.16-.01.32-.03.48-.04.22,1.04.59,2.08.63,3.14.09,2.8.02,5.61.03,8.41,0,1.45.95,2.43,2.31,2.41,1.32-.01,2.22-.95,2.24-2.36.01-.86,0-1.72,0-2.56,2.6,2.81,5.12,5.56,7.68,8.27,1.27,1.35,1.32,1.32.62,3-1.78,4.28-4.21,8.04-8.69,10.31,2.26,1.91,4.39,3.71,6.62,5.6.2-.49.32-.78.43-1.07,1.15-3.17,2.3-6.33,3.44-9.5.3-.84.57-1.7.93-2.52.12-.27.46-.45.7-.67.11.34.31.67.32,1.01.01.3-.16.62-.27.92-1.35,3.93-2.7,7.86-4.05,11.8-.15.44-.37.82.23,1.18,1.34.82,2.64,1.71,4.02,2.61.12-.42.21-.72.29-1.03,1.03-3.99,2.04-7.99,3.1-11.98.1-.37.53-.65.8-.97.11.4.37.82.31,1.19-.63,3.42-1.32,6.83-1.98,10.25-.32,1.67-.64,3.34-.96,5.01h9.81c-.07-.5-.12-.92-.2-1.33-.89-4.65-1.81-9.3-2.67-13.95-.07-.36.2-.78.31-1.18.26.33.66.62.76.99.62,2.21,1.17,4.44,1.75,6.66.55,2.1,1.1,4.2,1.68,6.42,1.31-.85,2.46-1.64,3.65-2.36.69-.41.86-.8.56-1.63-1.42-3.95-2.76-7.92-4.09-11.9-.18-.54-.75-1.23.13-1.65.09-.04.7.74.88,1.21.84,2.17,1.6,4.37,2.4,6.56.71,1.94,1.42,3.87,2.22,6.02,2.29-1.94,4.43-3.76,6.56-5.57-1.18-.84-2.24-1.47-3.15-2.27-2.77-2.43-4.47-5.57-5.8-8.95-.27-.69-.12-1.06.36-1.57,2.64-2.84,5.23-5.72,7.83-8.6.15-.17.2-.43.29-.64.1.08.2.17.3.25,0,.82,0,1.64,0,2.47.01,1.55.91,2.53,2.32,2.52,1.35,0,2.22-.97,2.23-2.47,0-2.84.07-5.68-.03-8.52-.04-1.31.51-2.28,1.28-3.58,0,.66,0,1.01,0,1.35,0,4.42,0,8.84,0,13.26,0,1.57.84,2.54,2.16,2.54,1.3,0,2.16-1,2.16-2.54,0-4.35,0-8.7,0-13.05,0-2.3,0-4.6,0-6.87-.56-.28-1.07-.54-1.56-.79.87-2.73,1.72-5.39,2.45-7.7.32,1.53.46,3.42,1.13,5.1.75,1.87,2.92,2.85,4.66,2.54-1.06-1.21-1.17-2.65-1.16-4.16.03-5.39-.02-10.78.04-16.18.01-1.07-.28-1.65-1.29-1.99-.32-.1-.74-.52-.75-.8-.02-.8.14-1.61.24-2.41.98.24,1.9.47,2.82.69.04-.09.09-.17.13-.26-1.15-1.26-1.21-2.79-1.19-4.36.03-2.36,0-4.71,0-7.15-1.29.41-2.43.83-3.6,1.1-.64.15-.8.41-.78,1.01.04,1.14.01,2.28.01,3.52-6.31-1.1-12.16-3.02-17.52-6.32-3.4-2.09-6.29-4.77-8.98-7.69-1.06-1.15-1.91-1.13-3-.05-1.07,1.06-2.16,2.09-3.26,3.15-.57-.32-1.07-.6-1.57-.87-1.4-.77-1.4-.76-2.33.5-.36.49-.73,1-1.2,1.36-4.07,3.18-8.42,5.92-13.3,7.63-2.72.95-5.55,1.56-8.51,2.38v-4.26c-1.48-.58-2.84-1.11-4.31-1.68ZM104.67,53.33c-2.09-.5-3.95-1.27-5.52-2.47,1.83.22,3.66.6,5.5.61,1.84,0,3.61-.56,5.33-1.69-2.82-.79-5.13-2.03-7.11-3.91,1.91.54,3.73,1.17,5.61,1.55,1.88.38,3.78.24,5.76-.64-3.84-1.35-7.35-4.06-7.98-6.17,2.89,2.11,5.97,3.4,9.72,3.35-2.29-2.44-3.69-5.07-4.38-7.95,1.39,1.59,2.71,3.33,4.27,4.84,1.59,1.53,3.65,2.27,5.6,2.75-.63-1.92-1.54-3.77-1.82-5.7-.55-3.89-2.34-6.89-5.53-9.09-3.17-2.19-6.51-2.82-9.99-.74-2.11,1.26-3.84,2.92-3.83,5.59,0,1.34.34,2.7.63,4.02.61,2.81-.66,5.19-3.35,6.17-4.34,1.57-8.5.14-10.99-3.9-.84-1.36-1.45-2.86-2.2-4.36-2.48.41-5,.45-7.52-.58-.37,2.27-.73,4.45-1.08,6.6.57-.17,1.09-.38,1.62-.49,1.55-.32,2.46.66,3.36,1.68,4.97,5.61,11.16,9.3,18.29,11.46,1.83.55,3.7.97,5.61,1.47v-2.4ZM105.92,89.53c-.02.49-.05.83-.05,1.17,0,3.27,0,6.54,0,9.81,0,3.67-.02,7.33,0,10.99.01,1.55.92,2.5,2.24,2.47,1.26-.03,2.11-.93,2.11-2.36.01-6.47.01-12.94-.01-19.4,0-.29-.19-.73-.42-.85-1.23-.63-2.5-1.19-3.88-1.83ZM122.62,120.28c-1.37-1.4-1.34-2.98-1.34-4.57.02-6.03.02-12.07,0-18.1,0-.38-.12-.96-.37-1.09-1.25-.67-2.56-1.21-3.95-1.85,0,3.2,0,6.25,0,9.3,0,3.63-.03,7.26,0,10.88.03,3.09,2.37,5.42,5.65,5.43ZM35.05,117.64c2.76.36,5.61-2.29,5.59-5.27-.04-6-.01-12-.01-18,0-.71,0-1.43,0-2.28-1.18.54-2.23,1.08-3.32,1.51-.77.3-1.05.71-1.04,1.58.05,5.96.02,11.93.03,17.89,0,1.62.11,3.25-1.25,4.57ZM35.16,94.64c-1.27.58-2.36,1.12-3.48,1.58-.65.27-.88.63-.88,1.36.04,5.82.01,11.63.03,17.45,0,1.83.14,3.68-1.3,5.22,3.01.15,5.59-2.27,5.61-5.31.06-6.71.02-13.42.02-20.3ZM111.43,92.08c0,6.97-.07,13.79.03,20.61.04,2.85,2.59,5.05,5.62,5.03-1.44-1.47-1.33-3.24-1.33-5,.02-5.89.01-11.79,0-17.68,0-.38-.11-.96-.36-1.1-1.25-.67-2.57-1.22-3.95-1.86ZM46.16,89.54c-1.35.62-2.62,1.18-3.86,1.81-.21.11-.4.49-.4.75-.02,6.61-.03,13.22,0,19.83,0,1.26,1.03,2.11,2.29,2.03,1.26-.08,2.01-.97,2.02-2.44,0-7.08,0-14.16,0-21.23,0-.2-.02-.41-.04-.74ZM35.16,44.16c-1.3.6-2.38,1.15-3.5,1.6-.68.27-.85.67-.85,1.38.03,5.17.02,10.35.02,15.52,0,1.96.24,3.97-1.36,5.65,3.45-.14,5.68-2.44,5.7-5.7.02-4.85,0-9.7,0-14.55,0-1.22,0-2.44,0-3.9ZM122.63,68.3c-1.34-1.42-1.35-2.98-1.34-4.59.03-5.53.02-11.05,0-16.58,0-.36-.06-.92-.28-1.03-1.27-.68-2.6-1.26-3.96-1.89-.03.29-.06.43-.06.58,0,6.14-.06,12.27.02,18.41.04,2.85,2.37,4.95,5.63,5.1ZM29.56,93.36c3.17.1,5.59-2.37,5.6-5.58.02-5.78,0-11.56,0-17.34,0-.24-.02-.48-.05-.88-1.2.56-2.27,1.12-3.39,1.55-.73.28-.92.7-.91,1.44.03,5.49,0,10.98.03,16.48,0,1.54-.15,3-1.28,4.33ZM122.56,93.33c-1.16-1.25-1.29-2.6-1.28-4.04.03-5.6.02-11.2,0-16.81,0-.34-.02-.88-.21-.98-1.3-.69-2.65-1.28-4.11-1.97,0,3.65,0,7.06,0,10.47,0,2.69-.04,5.39.01,8.08.06,3.02,2.54,5.42,5.59,5.25ZM111.42,66.98c0,6.37-.04,12.51.02,18.65.03,2.92,2.63,5.33,5.53,5.12-1.52-1.7-1.2-3.71-1.21-5.67,0-5.06,0-10.13-.02-15.19,0-.35-.08-.9-.31-1.02-1.26-.66-2.57-1.22-4.01-1.89ZM35.07,90.79c3.14.07,5.54-2.28,5.56-5.29.02-5.93,0-11.85,0-17.78,0-.2-.04-.39-.07-.69-1.2.55-2.28,1.1-3.4,1.56-.66.27-.88.63-.88,1.36.04,5.53,0,11.06.03,16.6,0,1.5-.06,2.94-1.24,4.25ZM84.93,28.56c-1.99-.43-3.62-1.4-5.18-2.87,4.3-.24,5.96-.71,6.73-1.87q-3.88-.4-4.71-1.12c2.84-.81,4.35-1.9,4.87-3.58-.27.08-.5.17-.74.22-2.2.46-4.39,1.14-6.61,1.3-2.34.17-4.62-.54-6.71-1.68-.74-.4-1.44-.34-1.86.42-.39.71-.1,1.31.6,1.71.5.28.98.62,1.5.84.97.4,1.4,1.09,1.73,2.1,1.49,4.51,5.45,6.23,10.36,4.54ZM36.29,47.35c0,4.33,0,8.74,0,13.15,0,1.81.27,3.68-1.31,5.22,3.1.07,5.57-2.23,5.63-5.14.06-3.05.03-6.1,0-9.15,0-.3-.19-.67-.42-.87-1.27-1.09-2.57-2.13-3.89-3.21ZM115.75,47.36c-1.3,1.07-2.53,2.05-3.7,3.1-.31.28-.6.79-.61,1.19-.05,2.84-.04,5.68-.02,8.52,0,.53.07,1.08.21,1.59.64,2.43,3.1,4.22,5.34,3.86-1.06-1.16-1.24-2.54-1.23-4.02.04-4.42.01-8.84.01-13.26v-.98Z"/>
        <path class="cls-2" d="M41.88,51.3c1.47.57,2.82,1.1,4.31,1.68v4.26c2.96-.81,5.79-1.42,8.51-2.38,4.89-1.71,9.24-4.45,13.3-7.63.47-.37.84-.88,1.2-1.36.93-1.26.93-1.27,2.33-.5.5.28,1,.55,1.57.87,1.09-1.06,2.19-2.1,3.26-3.15,1.09-1.07,1.95-1.1,3,.05,2.69,2.92,5.58,5.6,8.98,7.69,5.36,3.3,11.21,5.22,17.52,6.32,0-1.24.03-2.38-.01-3.52-.02-.6.15-.87.78-1.01,1.17-.27,2.31-.7,3.6-1.1,0,2.44.02,4.8,0,7.15-.02,1.57.04,3.09,1.19,4.36-.04.09-.09.17-.13.26-.92-.23-1.84-.45-2.82-.69-.09.79-.26,1.6-.24,2.41,0,.28.43.7.75.8,1.01.33,1.3.92,1.29,1.99-.07,5.39-.01,10.78-.04,16.18,0,1.5.1,2.94,1.16,4.16-1.74.31-3.91-.67-4.66-2.54-.67-1.68-.81-3.57-1.13-5.1-.74,2.31-1.58,4.97-2.45,7.7.49.25,1,.51,1.56.79,0,2.28,0,4.58,0,6.87,0,4.35,0,8.7,0,13.05,0,1.54-.86,2.54-2.16,2.54-1.32,0-2.16-.97-2.16-2.54,0-4.42,0-8.84,0-13.26,0-.34,0-.69,0-1.35-.77,1.29-1.32,2.27-1.28,3.58.1,2.84.03,5.68.03,8.52,0,1.5-.88,2.46-2.23,2.47-1.41,0-2.31-.97-2.32-2.52,0-.82,0-1.64,0-2.47-.1-.08-.2-.17-.3-.25-.1.22-.14.48-.29.64-2.6,2.88-5.19,5.76-7.83,8.6-.47.51-.63.88-.36,1.57,1.33,3.38,3.02,6.52,5.8,8.95.91.8,1.97,1.43,3.15,2.27-2.12,1.8-4.27,3.63-6.56,5.57-.79-2.15-1.51-4.08-2.22-6.02-.8-2.19-1.57-4.38-2.4-6.56-.18-.47-.79-1.25-.88-1.21-.88.42-.31,1.11-.13,1.65,1.33,3.98,2.67,7.95,4.09,11.9.3.83.13,1.21-.56,1.63-1.19.72-2.35,1.51-3.65,2.36-.58-2.22-1.13-4.32-1.68-6.42-.58-2.22-1.13-4.45-1.75-6.66-.1-.37-.5-.66-.76-.99-.11.39-.38.82-.31,1.18.86,4.66,1.77,9.3,2.67,13.95.08.41.13.83.2,1.33h-9.81c.32-1.67.64-3.34.96-5.01.67-3.42,1.35-6.83,1.98-10.25.07-.36-.2-.79-.31-1.19-.28.32-.71.6-.8.97-1.06,3.98-2.07,7.98-3.1,11.98-.08.31-.17.62-.29,1.03-1.38-.9-2.67-1.8-4.02-2.61-.59-.36-.38-.74-.23-1.18,1.35-3.93,2.7-7.86,4.05-11.8.1-.31.28-.62.27-.92-.01-.34-.21-.68-.32-1.01-.24.22-.58.4-.7.67-.36.82-.62,1.68-.93,2.52-1.15,3.17-2.29,6.34-3.44,9.5-.11.29-.23.58-.43,1.07-2.23-1.89-4.35-3.68-6.62-5.6,4.48-2.28,6.9-6.03,8.69-10.31.7-1.68.65-1.65-.62-3-2.56-2.71-5.08-5.46-7.68-8.27,0,.83,0,1.7,0,2.56-.02,1.41-.92,2.35-2.24,2.36-1.36.01-2.3-.96-2.31-2.41,0-2.8.06-5.61-.03-8.41-.03-1.05-.41-2.09-.63-3.14-.16.01-.32.03-.48.04-.02.35-.05.71-.05,1.06,0,4.21,0,8.41,0,12.62,0,.46-.02.95-.17,1.38-.33.93-1.02,1.48-2.05,1.44-1.05-.04-1.76-.59-2.02-1.62-.11-.45-.12-.92-.12-1.39,0-5.86.01-11.72-.02-17.58,0-1.21-.12-2.35,1.55-2.52-.89-2.8-1.74-5.47-2.58-8.14-.04,0-.08,0-.12,0,0,.94.03,1.89,0,2.83-.12,2.97-2.56,5.32-5.54,5.18,1.56-1.77,1.22-3.86,1.23-5.88.01-5,.02-9.99-.01-14.99,0-.66.11-1.14.79-1.29,1.07-.24,1.32-.88,1.04-1.88-.13-.47-.09-1-.13-1.54-.93.24-1.84.47-2.74.7-.07-.06-.15-.12-.22-.18,1.6-1.72,1.27-3.8,1.28-5.82,0-2.01,0-4.02,0-6.01ZM44.96,60.24c.78,24.85,10.6,44.88,31.1,59.3,10.27-7.57,19.49-17.32,24.72-29.59,4.04-9.48,5.74-19.45,6.38-29.69-11.82-2.13-22.6-6.09-31.18-14.77-8.53,8.8-19.17,13.01-31.02,14.74Z"/>
        <path class="cls-2" d="M53.21,50.55c-2.49.81-5.01,1.3-7.59.55-1.01-.29-1.96-.8-2.93-1.36,2.57-.89,4.91-2.05,6.86-3.88.16-.03.31-.06.47-.09l-.3-.3c-.1.08-.2.15-.3.23-1.88.55-3.75,1.21-5.66,1.61-1.77.37-3.55.05-5.2-.59,1.49-.81,3.07-1.49,4.43-2.48,1.33-.98,2.43-2.27,3.5-3.61-3.02,1.91-6.18,3.19-10.03,3.11,2.61-2.47,4.23-5.33,4.97-8.69-2.55,4.05-5.65,7.29-10.61,7.86.59-1.9,1.41-3.73,1.7-5.64.7-4.67,3.34-7.78,7.42-9.76,3.91-1.9,8.53-.57,10.97,3.03,1.19,1.75,1.14,3.71.57,5.6-.41,1.36-.21,2.42.64,3.47.63.78,1.22,1.6,1.83,2.39,2.95,3.78,7.89,3.27,10.71.44,2.5-2.51,3.81-5.6,4.42-9.04.06-.35.1-.71.18-1.06.12-.59-.01-1.01-.59-1.33-.53-.29-.99-.71-1.48-1.08-1.21-.91-1.94-2.09-2-3.77-.86.29-1.59.54-2.32.79-.31-2.21,1.21-4.03,3.57-4.19.7-.05,1.42.18,2.13.22.42.03.85-.05,1.27-.08.02-.1.04-.19.06-.29.8.4,1.63.76,2.4,1.21.27.16.53.49.61.8,1.28,4.89,5.2,6.45,9.3,6.36,1.12-.02,1.99.08,2.78.89.36.37.87.61,1.32.91-2.14,1.59-6.66,2.6-10.79.14-.64,3.98-1.28,7.92-1.93,12.01-.98-.57-1.8-1.14-2.71-1.54-.35-.16-1.12-.11-1.27.13-2.23,3.39-5.71,5.19-9.03,7.18-3.71,2.23-7.69,3.85-11.98,4.64-.38.07-.76.11-1.2.17v-2.21c2.15-.48,4.23-1.11,5.96-2.55.06-.06.13-.11.19-.17-.11,0-.23,0-.34,0Z"/>
        <path class="cls-2" d="M104.67,53.33v2.4c-1.92-.5-3.79-.92-5.61-1.47-7.13-2.16-13.32-5.85-18.29-11.46-.9-1.02-1.81-2-3.36-1.68-.53.11-1.05.31-1.62.49.35-2.14.71-4.33,1.08-6.6,2.52,1.03,5.04.99,7.52.58.75,1.5,1.36,3,2.2,4.36,2.48,4.03,6.65,5.47,10.99,3.9,2.7-.98,3.97-3.36,3.35-6.17-.29-1.33-.62-2.68-.63-4.02-.01-2.68,1.72-4.33,3.83-5.59,3.48-2.08,6.82-1.45,9.99.74,3.18,2.2,4.97,5.2,5.53,9.09.28,1.94,1.18,3.79,1.82,5.7-1.95-.48-4.02-1.21-5.6-2.75-1.56-1.5-2.88-3.25-4.27-4.84.69,2.89,2.1,5.51,4.38,7.95-3.75.05-6.83-1.24-9.72-3.35.63,2.11,4.14,4.82,7.98,6.17-1.98.88-3.87,1.03-5.76.64-1.87-.38-3.69-1.01-5.61-1.55,1.98,1.88,4.29,3.12,7.11,3.91-1.73,1.13-3.5,1.7-5.33,1.69-1.83,0-3.67-.39-5.5-.61,1.57,1.2,3.42,1.97,5.52,2.47ZM102.67,45.54s-.06.05-.09.07c.03.02.05.07.08.07.03,0,.05-.04.08-.06-.02-.03-.05-.05-.07-.08Z"/>
        <path class="cls-2" d="M105.92,89.53c1.38.64,2.65,1.19,3.88,1.83.23.12.41.56.42.85.02,6.47.03,12.94.01,19.4,0,1.43-.85,2.33-2.11,2.36-1.33.03-2.23-.91-2.24-2.47-.03-3.66,0-7.33,0-10.99,0-3.27,0-6.54,0-9.81,0-.34.03-.69.05-1.17Z"/>
        <path class="cls-2" d="M122.62,120.28c-3.29-.01-5.62-2.35-5.65-5.43-.03-3.63,0-7.26,0-10.88,0-3.05,0-6.1,0-9.3,1.39.64,2.7,1.18,3.95,1.85.25.13.36.72.37,1.09.02,6.03.03,12.07,0,18.1,0,1.6-.04,3.17,1.34,4.57Z"/>
        <path class="cls-2" d="M35.05,117.64c1.36-1.32,1.25-2.94,1.25-4.57-.02-5.96.02-11.93-.03-17.89,0-.87.27-1.28,1.04-1.58,1.09-.42,2.14-.96,3.32-1.51,0,.85,0,1.57,0,2.28,0,6-.03,12,.01,18,.02,2.97-2.83,5.62-5.59,5.27Z"/>
        <path class="cls-2" d="M35.16,94.64c0,6.87.04,13.59-.02,20.3-.03,3.04-2.6,5.46-5.61,5.31,1.45-1.54,1.31-3.39,1.3-5.22-.01-5.82.01-11.63-.03-17.45,0-.74.23-1.09.88-1.36,1.12-.46,2.21-1,3.48-1.58Z"/>
        <path class="cls-2" d="M111.43,92.08c1.38.64,2.7,1.19,3.95,1.86.25.13.36.72.36,1.1.02,5.89.03,11.79,0,17.68,0,1.76-.11,3.53,1.33,5-3.03.02-5.58-2.18-5.62-5.03-.1-6.82-.03-13.64-.03-20.61Z"/>
        <path class="cls-2" d="M46.16,89.54c.02.33.04.53.04.74,0,7.08,0,14.16,0,21.23,0,1.47-.76,2.37-2.02,2.44-1.26.08-2.28-.77-2.29-2.03-.02-6.61-.02-13.22,0-19.83,0-.26.19-.64.4-.75,1.24-.62,2.51-1.18,3.86-1.81Z"/>
        <path class="cls-2" d="M35.16,44.16c0,1.46,0,2.68,0,3.9,0,4.85.01,9.7,0,14.55-.01,3.26-2.24,5.56-5.7,5.7,1.6-1.69,1.36-3.69,1.36-5.65,0-5.17.02-10.35-.02-15.52,0-.71.17-1.11.85-1.38,1.12-.45,2.2-1,3.5-1.6Z"/>
        <path class="cls-2" d="M122.63,68.3c-3.25-.15-5.59-2.25-5.63-5.1-.08-6.14-.02-12.27-.02-18.41,0-.14.03-.29.06-.58,1.36.63,2.69,1.21,3.96,1.89.22.12.28.68.28,1.03.02,5.53.03,11.05,0,16.58,0,1.6,0,3.16,1.34,4.59Z"/>
        <path class="cls-2" d="M29.56,93.36c1.13-1.34,1.29-2.79,1.28-4.33-.03-5.49,0-10.98-.03-16.48,0-.74.18-1.16.91-1.44,1.12-.43,2.19-.99,3.39-1.55.02.4.04.64.05.88,0,5.78.01,11.56,0,17.34,0,3.21-2.43,5.68-5.6,5.58Z"/>
        <path class="cls-2" d="M122.56,93.33c-3.04.17-5.53-2.22-5.59-5.25-.05-2.69-.01-5.39-.01-8.08,0-3.41,0-6.82,0-10.47,1.46.69,2.81,1.28,4.11,1.97.19.1.21.64.21.98.01,5.6.03,11.2,0,16.81,0,1.44.12,2.79,1.28,4.04Z"/>
        <path class="cls-2" d="M111.42,66.98c1.45.66,2.76,1.22,4.01,1.89.23.12.31.67.31,1.02.02,5.06,0,10.13.02,15.19,0,1.95-.32,3.97,1.21,5.67-2.89.21-5.5-2.2-5.53-5.12-.06-6.14-.02-12.28-.02-18.65Z"/>
        <path class="cls-2" d="M35.07,90.79c1.18-1.31,1.25-2.75,1.24-4.25-.03-5.53,0-11.06-.03-16.6,0-.73.22-1.09.88-1.36,1.12-.46,2.2-1,3.4-1.56.03.3.07.49.07.69,0,5.93.02,11.85,0,17.78-.01,3.01-2.42,5.36-5.56,5.29Z"/>
        <path class="cls-2" d="M84.93,28.56c-4.91,1.69-8.88-.03-10.36-4.54-.33-1-.77-1.7-1.73-2.1-.53-.22-1-.56-1.5-.84-.7-.4-.99-1-.6-1.71.42-.75,1.12-.82,1.86-.42,2.09,1.14,4.37,1.86,6.71,1.68,2.22-.16,4.41-.84,6.61-1.3.24-.05.47-.14.74-.22-.52,1.68-2.03,2.77-4.87,3.58q.83.72,4.71,1.12c-.77,1.15-2.44,1.63-6.73,1.87,1.56,1.46,3.19,2.44,5.18,2.87Z"/>
        <path class="cls-2" d="M36.29,47.35c1.32,1.08,2.63,2.12,3.89,3.21.23.2.42.57.42.87.03,3.05.07,6.1,0,9.15-.06,2.91-2.53,5.22-5.63,5.14,1.58-1.53,1.31-3.41,1.31-5.22,0-4.41,0-8.82,0-13.15Z"/>
        <path class="cls-2" d="M115.75,47.36v.98c0,4.42.02,8.84-.01,13.26-.01,1.48.17,2.86,1.23,4.02-2.24.36-4.7-1.43-5.34-3.86-.13-.51-.2-1.06-.21-1.59-.02-2.84-.03-5.68.02-8.52,0-.41.29-.91.61-1.19,1.17-1.05,2.4-2.02,3.7-3.1Z"/>
        <path class="cls-1" d="M44.96,60.24c11.85-1.73,22.48-5.94,31.02-14.74,8.58,8.67,19.36,12.64,31.18,14.77-.64,10.23-2.34,20.2-6.38,29.69-5.23,12.27-14.45,22.02-24.72,29.59-20.5-14.42-30.32-34.45-31.1-59.3ZM54.2,59.97c.56.68,1.09,1.4,1.7,2.03.19.2.64.33.88.24.24-.08.52-.47.53-.74.06-.94.03-1.9.03-2.91-1.57.31-.36,1.69-1.02,2.37-.41-.55-.81-1.08-1.34-1.79-.28.3-.52.56-.76.82-.37-.04-.75-.08-1.27-.13.39,1.27.69,2.25,1.02,3.32.35-.14.62-.24.82-.32-.21-1.03-.4-1.96-.59-2.88ZM63.9,58.89c-.28-.41-.77-.81-.79-1.22-.04-.99-.56-1.08-1.27-.88-.57.16-1.1.44-1.69.69.46,1.1.86,2.08,1.27,3.06.13.02.27.03.4.05.09-.33.2-.65.27-.99.05-.21.04-.44.06-.66.22.12.47.21.66.37.15.12.25.33.35.47.63-.06,1.01-.24.73-.91.89.27,1.76.28,2.39-.48.22-.27.33-.8.23-1.13-.08-.25-.57-.45-.91-.52-.38-.08-.79.02-1.19.04-.02-.08-.04-.16-.06-.25.5-.12,1-.25,1.59-.4-.53-.89-1.19-.82-1.72-.44-.41.29-.95.91-.87,1.27.28,1.36,1.46.46,2.26.8-.23.2-.52.4-.74.35-.73-.19-.86.25-.97.77ZM74.47,53.7c.61-.31,1.28-.53,1.82-.94.77-.59.78-1.39.25-2.19-.53-.8-1.26-.99-2.14-.51-.52.28-1,.64-1.42.92.4.85.74,1.58,1.08,2.31-.64-.44-1.26-.91-1.93-1.3-.21-.12-.62-.1-.83.03-.22.13-.45.49-.42.72.11.99.31,1.97.48,2.95.08.04.16.08.24.12.18-.27.3-.6.54-.8.37-.3.82-.52,1.24-.76.36-.2.72-.37,1.09-.55ZM51.04,62.26c.71.56,1.06,2.02,2.42.98q-.67-3.15-1.59-2.85c.06.45.13.9.22,1.51q-1.56-1.29-2.47-.84c.35,2.54.69,3.15,1.55,2.78-.08-.48-.17-.97-.25-1.46.04-.04.09-.07.13-.11ZM76,111.19c16.51-10.86,23.47-26.79,24.42-45.94-.26-.08-.43-.14-.6-.18-8.27-2.33-16.14-5.57-23.26-10.45-.56-.38-.9-.13-1.33.16-5.36,3.6-11.14,6.37-17.24,8.45-2.13.72-4.27,1.38-6.41,2.07.97,19.14,7.93,35.04,24.42,45.89ZM98.46,61.82c-.06-1.14.35-2.51-1.41-2.24-.32.98-.64,1.95-1.01,3.06,1.38.36.9-1.09,1.52-1.39,0,.15,0,.28.03.41.1.51.2,1.02.3,1.54.4-.32.81-.64,1.22-.96.04-.03.11,0,.11,0,.45.42-.88,1.48.64,1.51.33-1.03.65-2.03.98-3.08-.52-.18-.94-.32-1.37-.47-.32.52-.59.94-1.02,1.62ZM94.94,98.45c.27-.43.51-.78.71-1.14.62-1.09.41-1.5-.81-1.68-.1-.01-.21-.07-.28-.14-.7-.82-1.07-.82-1.67.07-.25.38-.47.78-.73,1.21.95.58,1.82,1.12,2.76,1.69ZM67.04,54.36c.53,1,1.03,1.96,1.69,3.2.8-.74,1.68-1.24,2.07-2.01.27-.53.17-1.53-.65-1.97-1.19-.63-2.01.32-3.11.77ZM79.72,51.2c-.6,1.05-1.12,1.97-1.68,2.96,1.04.46,1.83,1.52,2.98.86.47-.27.93-.99.95-1.53.06-1.39-1.32-1.57-2.25-2.29ZM88.2,102.26c2.04,2.02,2.38,2.18,2.96,1.38-.25-.27-.5-.55-.73-.81.42-.92,1.6.91,1.8-.64-.48-.32-1.09-.55-1.45-1-.59-.73-.96-.85-1.6-.17-.36.38-.65.83-.97,1.23ZM49.09,61.08c-.33.1-.62.19-.9.28.16.7.35,1.32.42,1.95.02.23-.26.5-.4.75-.24-.16-.6-.27-.69-.49-.24-.59-.36-1.22-.55-1.93-.31.07-.6.13-.88.2.52,2.81.87,3.25,2.27,2.93,1.41-.33,1.53-.85.73-3.68ZM90.5,56.9c-.91,0-1.69.86-1.69,1.87,0,.89.9,1.68,1.89,1.67.92,0,1.66-.84,1.66-1.88,0-.94-.81-1.66-1.87-1.65ZM58.6,100.58c.76.83,1.1,2.11,2.42,1.81.53-.12,1.18-.7,1.35-1.21.37-1.11-.56-1.77-1.23-2.55-.85.65-1.65,1.26-2.54,1.94ZM100.24,63.84c.03.09.06.19.09.28.31-.05.65-.03.93-.15.65-.29,1.09-.21,1.48.44.16.27.55.41,1.04.74-.13-1.32-.19-2.28-.34-3.22-.04-.24-.32-.58-.53-.62-.28-.05-.72.05-.9.25-.63.72-1.18,1.51-1.75,2.28ZM94.83,99.08q-3.57-1.15-4.09.06c.61.88,1.24,1.78,1.86,2.67.11.02.22.05.32.07-.48-1.61.68-2.13,1.9-2.8ZM99.4,89.55c.1,0,.2.02.3.02-.56-1.36.13-2.29,1.02-3.17-1.11-.1-2.04-.13-2.96-.08-.24.01-.57.28-.65.5-.08.23,0,.64.16.81.68.67,1.42,1.28,2.13,1.91ZM78.1,111.91c1.39,2.88,1.4,2.89,2.25,2.25-.16-.34-.33-.68-.49-1.01.94-.96.99.26,1.47.54.2-.13.43-.27.7-.44-.55-.96-1.07-1.85-1.61-2.8-.3.2-.52.35-.74.49.17.56.97,1.21-.26,1.41-.39-.36-.5-1.39-1.33-.45ZM57.49,58.5c.41,1.11.77,2.1,1.15,3.12.65-.23,1.2-.38,1.71-.62.22-.11.35-.41.53-.62-.25-.02-.49-.07-.74-.06-.31.01-.62.07-.93.11-.02-.11-.04-.22-.07-.32l1.27-.61c0-.1-.01-.21-.02-.31h-1.68c-.02-.11-.03-.23-.05-.34.31-.13.65-.23.93-.4.17-.1.26-.33.39-.5-.2-.06-.42-.21-.59-.16-.61.18-1.2.43-1.93.7ZM82.56,55.67c.78-.43,1.33.77,1.85-.2-.42-.34-.78-.64-1.15-.94.06-.09.12-.18.18-.26.27.11.54.26.82.32.24.06.5.02.74.03-.12-.21-.19-.5-.37-.62-.53-.33-1.1-.59-1.73-.91-.53,1.01-1.02,1.94-1.51,2.87,1.68,1.22,2.1,1.33,2.42.68-.4-.31-.8-.61-1.26-.97ZM54.05,90.39c-.9.66-.81,1.32-.41,1.85.28.37.86.82,1.24.76,1.39-.22.42-1.45.8-2.37.21.68.36,1.16.53,1.71.69-.69.82-1.11.34-1.75-.25-.34-.82-.73-1.16-.67-1.32.24-.44,1.39-.94,2.15-.12-.51-.23-1.02-.38-1.7ZM74.67,112.04c-.54-.5-.87-.42-1.1.18-.13.33-.26.7-.49.94-.23.23-.59.32-.9.47-.04-.31-.16-.64-.09-.92.09-.37.31-.72.52-1.05.43-.71-.02-.81-.53-.94-1.35,2.42-1.37,3-.15,3.6,1.19.59,1.65.21,2.75-2.28ZM89.06,57.1c.06-1.03-.63-1.44-1.46-1.64-1.02-.25-1.55.39-1.86,1.22-.31.83-.18,1.58.69,2.01.68.33,1.39.63,1.93-.2-.16-.97-2.56.44-1.58-1.58.93-1.9,1.35.68,2.28.19ZM64.28,107.7c.1-.04.19-.09.29-.13.44-.85.9-1.69,1.3-2.56.09-.2.06-.57-.07-.72-.17-.19-.55-.4-.76-.33-.97.32-1.9.72-2.85,1.1-.04.1-.09.2-.13.29,1.64-.03,1.97,1.12,2.22,2.35ZM98.23,92.8c-.09-.07-.17-.15-.26-.22-.92-.1-1.84-.24-2.77-.29-.24-.01-.57.21-.71.43-.11.18-.1.58.04.75.62.76,1.3,1.48,1.96,2.21.12.01.24.02.35.03-.56-1.47.35-2.22,1.38-2.91ZM59.59,96.15c-.21-.26-.38-.49-.63-.81-.7.9-2.23.92-2.09,2.32.05.53.59,1.3,1.07,1.45,1.2.39,1.85-.77,2.72-1.44-.38-.2-.74-.26-1.04-.15-.36.13-.64.47-1,.61-.25.09-.57,0-.85-.02.08-.3.07-.7.27-.88.44-.41.98-.7,1.57-1.09ZM85.27,110.47c-.04-.11-.08-.22-.13-.34-.86-.43-1.7-.88-2.57-1.27-.2-.09-.58-.03-.72.11-.18.18-.34.57-.27.78.31.94.7,1.85,1.06,2.77.1.04.2.09.3.13.03-1.54,1.04-2.02,2.33-2.2ZM53.84,89.41c.13,0,.26.01.39.02-.03-.52-.05-1.03-.08-1.55.39.19.5.47.68.7.14.17.38.27.57.4.02-.22.12-.46.05-.65-.2-.56-.46-1.1-.72-1.69-1.03.44-1.98.85-2.91,1.25.68,2.16.71,2.2,1.42,1.87-.14-.43-.27-.86-.41-1.29l.35-.15c.22.37.44.73.65,1.1ZM77.88,113.01c-.47-1.08-1.21-1.14-2.03-.9-.98.28-1,1.1-.94,1.91.06.76.39,1.31,1.22,1.37.82.06,1.58-.03,1.8-1.35-.66.28-1.14.49-1.92.82-.02-.7-.03-1.28-.05-1.86.39.05.78.11,1.17.13.2,0,.4-.06.74-.12ZM94.1,58.3c-.29-.11-.57-.22-.91-.35-.41,1.07-.78,2.05-1.14,3.02,1.85,1.02,2.15,1.05,2.37.3-.38-.18-.76-.36-1.2-.56.28-.76.55-1.5.89-2.4ZM89.69,105.49c-.63-.57-1.21-1.1-1.68-1.53.06-.47.11-.84.15-1.2-.11-.02-.22-.05-.34-.07-.58.67-1.16,1.34-1.73,2.01.05.1.1.21.15.31.34-.11.69-.22,1.1-.35.53.45,1.12.96,1.76,1.51.2-.23.38-.43.59-.68ZM55.4,95.48c1.11.1,1.74-1.84,2.92-.35.13-.11.34-.26.33-.29-.38-.76-.77-1.5-1.17-2.25-.19.11-.49.19-.53.34-.04.19.13.43.21.66-.74.43-1.41.83-2.14,1.25.16.27.29.48.38.64ZM98.1,90.77c-.28.36-.53.68-.81,1.04.91.43,1.32.04,1.58-.59.26-.65.14-1.19-.57-1.51-.64-.28-1.28-.58-1.92-.87q-.27.57,1.72,1.92ZM70.3,108.83c-.74.82-1.45,1.61-2.19,2.42.63.57,1.16,1.05,1.69,1.52.11-.06.22-.13.33-.19-.23-.42-.45-.85-.72-1.35.19-.22.44-.52.7-.82.27-.31.55-.62.86-.97-.25-.24-.43-.4-.66-.62ZM95.78,58.94c-1.29,3.31-1.36,3.26-.21,3.36.36-1,.72-2.02,1.09-3.07-.37-.12-.6-.2-.89-.29ZM65.86,55.02c.51,1.04.96,1.95,1.45,2.94.33-.17.59-.3.87-.45-.5-1.02-.97-1.97-1.47-2.99-.32.19-.55.32-.86.5ZM63.54,101.7c-.83.7-1.62,1.37-2.45,2.08.22.25.39.45.6.69.85-.71,1.64-1.37,2.47-2.07-.23-.26-.4-.46-.61-.7ZM67.3,109.4c.3-.42.67-.74.62-.92-.08-.28-.47-.46-.72-.69-.2.24-.56.47-.57.71,0,.24.35.49.67.9ZM86.67,108.05c-.44-.28-.74-.62-.96-.58-.25.05-.61.45-.59.68.02.24.41.61.66.63.23.01.48-.37.89-.73Z"/>
        <path class="cls-1" d="M49.41,45.7c.1-.08.2-.15.3-.23l.3.3c-.16.03-.31.06-.47.09-.05-.05-.09-.11-.14-.16Z"/>
        <path class="cls-1" d="M53.21,50.55c.11,0,.23,0,.34,0-.06.06-.13.11-.19.17-.05-.06-.1-.12-.15-.17Z"/>
        <path class="cls-1" d="M102.67,45.54s.05.05.07.08c-.03.02-.05.06-.08.06-.03,0-.05-.04-.08-.07.03-.02.05-.05.09-.07Z"/>
        <path class="cls-2" d="M76,111.19c-16.5-10.85-23.45-26.75-24.42-45.89,2.14-.69,4.29-1.35,6.41-2.07,6.11-2.08,11.88-4.85,17.24-8.45.42-.28.77-.54,1.33-.16,7.12,4.88,14.98,8.12,23.26,10.45.17.05.34.1.6.18-.95,19.15-7.91,35.08-24.42,45.94ZM75.96,109.4c2.28-1.93,4.39-3.7,6.46-5.53.29-.26.47-.79.47-1.2.04-3.02.02-6.04.02-9.06v-2.58c-1.84-.26-3.51-.1-5.22.31-.99.24-2.15.27-3.12,0-2.17-.6-4.3-.47-6.54-.24,0,3.71-.01,7.34.02,10.96,0,.3.26.67.5.88,2.4,2.11,4.81,4.2,7.39,6.44ZM75.21,88.67v-18.77c0-2.92-.29-3.24-3.24-3.63-.35-.05-.72-.08-1.07-.04-2.98.32-5.96.65-9.01.99,0,6.72,0,13.46.03,20.2,0,.27.46.76.74.77,1.57.11,3.14.18,4.71.12,2.57-.09,5.15-.49,7.85.36ZM76.85,88.69c2.76-.87,5.45-.51,8.13-.34,1.75.12,3.51.27,5.18-.34v-20.75c-1.94-.26-3.8-.47-5.64-.75-2.33-.35-4.66-.61-6.87.48-.34.17-.77.63-.77.95-.04,6.86-.03,13.73-.03,20.74ZM84.68,101.68c9.44-9.99,12.97-22.08,14.01-34.96-4.79-1.79-9.41-3.52-14-5.24v3.88h7.03v1.14c0,7.47-.04,14.94.04,22.41.01,1.28-.4,1.84-1.6,1.95-1.81.17-3.61.34-5.48.51v10.3ZM66.31,91.45c-1.73-.28-3.31-.58-4.9-.77-.87-.1-.99-.52-.98-1.28.02-7.69.01-15.37.01-23.06,0-.34,0-.68,0-.74,1.84-.08,3.54-.14,5.24-.26.23-.02.62-.31.63-.5.06-.98.03-1.97.03-2.93-4.41,1.61-8.7,3.18-13.01,4.75-.11,10.85,7.32,30.2,12.97,33.6v-8.82ZM82.92,64.8c0-1.38.03-2.7-.03-4.02,0-.24-.3-.53-.54-.68-1.94-1.16-3.89-2.3-5.86-3.41-.25-.14-.69-.18-.93-.06-2.35,1.31-4.68,2.65-7,4.01-.23.14-.5.45-.51.7-.05,1.17-.02,2.35-.02,3.53.21.03.32.08.42.06,2.55-.36,5.01-.2,7.32,1.08.13.07.37.09.49.02,2.04-1.14,4.26-1.39,6.65-1.22Z"/>
        <path class="cls-2" d="M98.46,61.82c.43-.68.69-1.1,1.02-1.62.43.15.85.29,1.37.47-.33,1.05-.66,2.06-.98,3.08-1.52-.03-.19-1.09-.64-1.51,0,0-.07-.02-.11,0-.41.32-.81.64-1.22.96-.1-.51-.21-1.02-.3-1.54-.02-.13-.02-.27-.03-.41-.62.31-.13,1.75-1.52,1.39.36-1.11.68-2.08,1.01-3.06,1.76-.28,1.35,1.1,1.41,2.24Z"/>
        <path class="cls-2" d="M50.91,62.37c.08.49.17.98.25,1.46-.86.37-1.19-.23-1.55-2.78q.91-.45,2.47.84c-.09-.61-.15-1.06-.22-1.51q.92-.31,1.59,2.85c-1.36,1.04-1.71-.41-2.42-.97-.08-.08-.16-.15-.24-.23.04.11.07.22.11.34ZM52.19,62.04s-.05-.09-.07-.13c-.02.02-.06.05-.06.07,0,.05.04.09.06.13.02-.02.04-.04.07-.07Z"/>
        <path class="cls-2" d="M94.94,98.45c-.94-.57-1.82-1.11-2.76-1.69.26-.43.47-.84.73-1.21.6-.88.96-.89,1.67-.07.06.07.18.13.28.14,1.22.18,1.42.59.81,1.68-.21.37-.45.72-.71,1.14Z"/>
        <path class="cls-2" d="M74.06,53.29c-.34-.73-.68-1.46-1.08-2.31.42-.28.9-.63,1.42-.92.88-.48,1.61-.29,2.14.51.53.8.52,1.6-.25,2.19-.53.41-1.21.63-1.82.94l.02.02c-.08-.08-.16-.16-.24-.24l.02.02c-.08-.08-.16-.16-.23-.23l.02.02ZM74.15,51.15c.33.5.65,1,.99,1.52.74-.4.92-.93.5-1.53-.4-.58-.92-.58-1.49.01Z"/>
        <path class="cls-2" d="M67.04,54.36c1.1-.44,1.92-1.4,3.11-.77.82.44.92,1.44.65,1.97-.39.76-1.27,1.27-2.07,2.01-.66-1.25-1.16-2.2-1.69-3.2ZM69.13,56.19c.81-.29,1.06-.78.68-1.43-.35-.6-.87-.6-1.5-.19.28.55.53,1.04.82,1.63Z"/>
        <path class="cls-2" d="M63.88,58.88c.28.67-.1.85-.73.91-.1-.14-.19-.35-.35-.47-.19-.16-.44-.25-.66-.37-.02.22-.01.44-.06.66-.07.33-.18.66-.27.99-.13-.02-.27-.03-.4-.05-.41-.98-.81-1.96-1.27-3.06.59-.25,1.13-.53,1.69-.69.71-.2,1.23-.11,1.27.88.02.42.51.82.79,1.22l-.02-.02Z"/>
        <path class="cls-2" d="M79.72,51.2c.94.72,2.31.9,2.25,2.29-.02.53-.48,1.26-.95,1.53-1.15.66-1.94-.4-2.98-.86.56-.99,1.08-1.9,1.68-2.96ZM80.18,52.38c-.31.57-.59,1.09-.86,1.6.64.52,1.15.47,1.5-.16.36-.63.12-1.08-.64-1.44Z"/>
        <path class="cls-2" d="M63.9,58.89c.11-.52.25-.96.97-.77.22.06.51-.15.74-.35-.8-.34-1.98.56-2.26-.8-.07-.36.47-.98.87-1.27.53-.38,1.19-.45,1.72.44-.59.15-1.09.27-1.59.4.02.08.04.16.06.25.4-.02.81-.11,1.19-.04.34.07.82.27.91.52.11.32,0,.86-.23,1.13-.63.76-1.5.76-2.39.48,0,0,.02.02.02.02Z"/>
        <path class="cls-2" d="M88.2,102.26c.31-.41.61-.85.97-1.23.64-.68,1.01-.56,1.6.17.36.44.97.68,1.45,1-.2,1.55-1.38-.28-1.8.64.23.26.48.53.73.81-.58.8-.91.65-2.96-1.38Z"/>
        <path class="cls-2" d="M74.47,53.7c-.36.18-.73.36-1.09.55-.42.24-.87.45-1.24.76-.24.19-.37.53-.54.8-.08-.04-.16-.08-.24-.12-.17-.98-.37-1.96-.48-2.95-.03-.23.21-.59.42-.72.21-.13.62-.15.83-.03.67.39,1.29.86,1.93,1.3,0,0-.02-.02-.02-.02.08.08.16.16.23.23,0,0-.02-.02-.02-.02.08.08.16.16.24.24l-.02-.02Z"/>
        <path class="cls-2" d="M49.09,61.08c.79,2.83.68,3.35-.73,3.68-1.4.33-1.75-.11-2.27-2.93.28-.06.56-.13.88-.2.19.7.31,1.34.55,1.93.09.22.45.33.69.49.14-.25.43-.52.4-.75-.06-.63-.26-1.25-.42-1.95.28-.09.57-.18.9-.28Z"/>
        <path class="cls-2" d="M90.5,56.9c1.06,0,1.87.72,1.87,1.65,0,1.04-.74,1.87-1.66,1.88-.99,0-1.89-.78-1.89-1.67,0-1,.78-1.86,1.69-1.87ZM90.47,60.03c.39-.68.74-1.09.84-1.54.05-.23-.35-.55-.54-.84-.32.42-.71.81-.91,1.28-.07.17.28.53.62,1.1Z"/>
        <path class="cls-2" d="M58.6,100.58c.89-.68,1.69-1.29,2.54-1.94.67.78,1.6,1.43,1.23,2.55-.17.51-.82,1.08-1.35,1.21-1.31.3-1.66-.98-2.42-1.81ZM59.78,100.88c.43.71.97.83,1.43.32.25-.28.21-.83.36-1.49-.46.2-.57.23-.65.29-.36.27-.72.56-1.14.88Z"/>
        <path class="cls-2" d="M100.24,63.84c.58-.77,1.13-1.56,1.75-2.28.18-.2.62-.31.9-.25.22.04.49.38.53.62.15.94.21,1.9.34,3.22-.49-.34-.88-.47-1.04-.74-.38-.65-.83-.73-1.48-.44-.28.12-.62.1-.93.15-.03-.09-.06-.19-.09-.28Z"/>
        <path class="cls-2" d="M94.83,99.08c-1.22.67-2.37,1.19-1.9,2.8-.11-.02-.22-.05-.32-.07-.63-.9-1.25-1.79-1.86-2.67q.52-1.2,4.09-.06Z"/>
        <path class="cls-2" d="M99.4,89.55c-.72-.63-1.46-1.24-2.13-1.91-.17-.17-.24-.58-.16-.81.08-.22.41-.49.65-.5.92-.06,1.85-.02,2.96.08-.89.88-1.58,1.81-1.02,3.17-.1,0-.2-.02-.3-.02Z"/>
        <path class="cls-2" d="M78.1,111.91c.83-.94.95.09,1.33.45,1.23-.21.43-.85.26-1.41.21-.14.44-.29.74-.49.54.94,1.06,1.84,1.61,2.8-.27.17-.49.31-.7.44-.48-.29-.53-1.5-1.47-.54.16.33.32.67.49,1.01-.85.64-.86.63-2.25-2.25Z"/>
        <path class="cls-2" d="M57.49,58.5c.73-.27,1.32-.52,1.93-.7.16-.05.39.1.59.16-.13.17-.22.39-.39.5-.29.17-.62.27-.93.4.02.11.03.23.05.34h1.68c0,.1.01.21.02.31l-1.27.61c.02.11.04.22.07.32.31-.04.62-.1.93-.11.24-.01.49.04.74.06-.17.21-.3.51-.53.62-.51.24-1.06.39-1.71.62-.38-1.02-.74-2.01-1.15-3.12Z"/>
        <path class="cls-2" d="M82.56,55.67c.46.35.86.66,1.26.97-.32.65-.74.54-2.42-.68.49-.92.98-1.86,1.51-2.87.62.32,1.2.58,1.73.91.18.11.25.41.37.62-.25,0-.51.03-.74-.03-.28-.07-.55-.21-.82-.32-.06.09-.12.18-.18.26.36.3.72.59,1.15.94-.52.97-1.07-.23-1.85.2Z"/>
        <path class="cls-2" d="M54.05,90.39c.15.68.27,1.19.38,1.7.5-.76-.37-1.91.94-2.15.34-.06.91.33,1.16.67.48.64.35,1.06-.34,1.75-.17-.55-.32-1.04-.53-1.71-.39.92.58,2.15-.8,2.37-.37.06-.96-.39-1.24-.76-.4-.53-.49-1.19.41-1.85Z"/>
        <path class="cls-2" d="M74.67,112.04c-1.1,2.49-1.55,2.86-2.75,2.28-1.22-.6-1.2-1.18.15-3.6.51.13.96.23.53.94-.2.33-.42.68-.52,1.05-.07.28.05.61.09.92.31-.15.67-.24.9-.47.24-.24.37-.61.49-.94.23-.6.56-.68,1.1-.18Z"/>
        <path class="cls-2" d="M89.06,57.1c-.93.49-1.35-2.09-2.28-.19-.98,2.01,1.42.61,1.58,1.58-.53.82-1.25.52-1.93.2-.88-.42-1.01-1.18-.69-2.01.31-.83.85-1.48,1.86-1.22.83.21,1.52.61,1.46,1.64Z"/>
        <path class="cls-2" d="M64.28,107.7c-.25-1.23-.59-2.38-2.22-2.35.04-.1.09-.2.13-.29.95-.38,1.88-.78,2.85-1.1.2-.07.59.14.76.33.13.15.17.53.07.72-.4.87-.86,1.71-1.3,2.56-.1.04-.19.09-.29.13Z"/>
        <path class="cls-2" d="M98.23,92.8c-1.03.69-1.94,1.43-1.38,2.91-.12-.01-.24-.02-.35-.03-.66-.73-1.34-1.44-1.96-2.21-.13-.16-.15-.57-.04-.75.13-.21.47-.44.71-.43.93.05,1.85.18,2.77.29.09.07.17.15.26.22Z"/>
        <path class="cls-2" d="M59.59,96.15c-.58.39-1.12.69-1.57,1.09-.19.18-.19.58-.27.88.29.01.61.11.85.02.36-.14.64-.48,1-.61.3-.11.66-.05,1.04.15-.88.66-1.52,1.83-2.72,1.44-.48-.16-1.01-.92-1.07-1.45-.14-1.4,1.4-1.42,2.09-2.32.25.32.43.54.63.81Z"/>
        <path class="cls-2" d="M85.27,110.47c-1.29.17-2.3.65-2.33,2.2-.1-.04-.2-.09-.3-.13-.36-.92-.75-1.83-1.06-2.77-.07-.22.09-.6.27-.78.14-.14.53-.2.72-.11.87.39,1.72.84,2.57,1.27.04.11.08.22.13.34Z"/>
        <path class="cls-2" d="M53.84,89.41c-.22-.37-.44-.73-.65-1.1l-.35.15c.14.43.27.86.41,1.29-.71.33-.74.29-1.42-1.87.93-.4,1.88-.8,2.91-1.25.26.59.52,1.13.72,1.69.07.19-.03.43-.05.65-.19-.13-.43-.23-.57-.4-.18-.22-.29-.51-.68-.7.03.52.05,1.03.08,1.55-.13,0-.26-.01-.39-.02Z"/>
        <path class="cls-2" d="M54.22,60c.24-.26.48-.52.76-.82.53.71.93,1.25,1.34,1.79.66-.68-.54-2.05,1.02-2.37,0,1.01.04,1.97-.03,2.91-.02.27-.29.65-.53.74-.25.08-.69-.05-.88-.24-.61-.64-1.14-1.35-1.7-2.03l.02.02Z"/>
        <path class="cls-2" d="M77.88,113.01c-.34.06-.54.13-.74.12-.39-.02-.78-.08-1.17-.13.01.58.03,1.16.05,1.86.78-.33,1.26-.54,1.92-.82-.23,1.32-.99,1.41-1.8,1.35-.83-.06-1.16-.61-1.22-1.37-.06-.82-.04-1.63.94-1.91.81-.24,1.56-.18,2.03.9Z"/>
        <path class="cls-2" d="M94.1,58.3c-.34.91-.61,1.64-.89,2.4.43.2.82.38,1.2.56-.22.75-.52.72-2.37-.3.37-.97.74-1.95,1.14-3.02.35.13.63.24.91.35Z"/>
        <path class="cls-2" d="M89.69,105.49c-.21.25-.39.45-.59.68-.64-.55-1.23-1.06-1.76-1.51-.41.13-.75.24-1.1.35-.05-.1-.1-.21-.15-.31.58-.67,1.16-1.34,1.73-2.01.11.02.22.05.34.07-.05.36-.09.73-.15,1.2.47.43,1.05.96,1.68,1.53Z"/>
        <path class="cls-2" d="M55.4,95.48c-.1-.16-.22-.37-.38-.64.73-.42,1.4-.82,2.14-1.25-.08-.22-.25-.47-.21-.66.03-.15.34-.23.53-.34.39.75.79,1.49,1.17,2.25.02.03-.2.17-.33.29-1.17-1.49-1.8.44-2.92.35Z"/>
        <path class="cls-2" d="M98.1,90.77q-1.99-1.35-1.72-1.92c.64.29,1.27.58,1.92.87.71.31.82.86.57,1.51-.25.63-.67,1.02-1.58.59.28-.36.53-.68.81-1.04Z"/>
        <path class="cls-2" d="M70.3,108.83c.24.22.41.39.66.62-.3.34-.58.65-.86.97-.26.3-.51.6-.7.82.27.5.5.93.72,1.35-.11.06-.22.13-.33.19-.53-.48-1.06-.95-1.69-1.52.74-.82,1.44-1.6,2.19-2.42Z"/>
        <path class="cls-2" d="M95.78,58.94c.28.09.51.17.89.29-.37,1.05-.74,2.07-1.09,3.07-1.16-.1-1.08-.05.21-3.36Z"/>
        <path class="cls-2" d="M54.2,59.97c.19.93.38,1.85.59,2.88-.2.08-.47.19-.82.32-.33-1.07-.63-2.05-1.02-3.32.52.05.89.09,1.27.13,0,0-.02-.02-.02-.02Z"/>
        <path class="cls-2" d="M65.86,55.02c.31-.18.54-.31.86-.5.5,1.02.97,1.97,1.47,2.99-.29.15-.54.28-.87.45-.49-.99-.94-1.9-1.45-2.94Z"/>
        <path class="cls-2" d="M63.54,101.7c.21.24.39.44.61.7-.83.7-1.62,1.36-2.47,2.07-.21-.24-.38-.44-.6-.69.84-.71,1.62-1.37,2.45-2.08Z"/>
        <path class="cls-2" d="M67.3,109.4c-.33-.41-.68-.66-.67-.9,0-.24.37-.47.57-.71.26.22.64.41.72.69.06.18-.32.5-.62.92Z"/>
        <path class="cls-2" d="M86.67,108.05c-.41.36-.66.74-.89.73-.25-.02-.64-.39-.66-.63-.02-.22.34-.63.59-.68.22-.04.52.29.96.58Z"/>
        <path class="cls-1" d="M75.96,109.4c-2.58-2.24-5-4.33-7.39-6.44-.24-.22-.5-.58-.5-.88-.03-3.62-.02-7.25-.02-10.96,2.24-.23,4.37-.36,6.54.24.97.27,2.13.24,3.12,0,1.7-.41,3.38-.57,5.22-.31v2.58c0,3.02.02,6.04-.02,9.06,0,.41-.18.94-.47,1.2-2.07,1.83-4.19,3.59-6.46,5.53Z"/>
        <path class="cls-1" d="M75.21,88.67c-2.7-.85-5.27-.45-7.85-.36-1.57.06-3.15-.01-4.71-.12-.27-.02-.73-.5-.74-.77-.04-6.74-.03-13.49-.03-20.2,3.05-.34,6.03-.67,9.01-.99.35-.04.72,0,1.07.04,2.95.39,3.24.72,3.24,3.63v18.77ZM66.97,78.37c-.53,1.52-.41,1.7,1.01,2.11.24.07.49.3.62.52.88,1.54,1.74,3.09,2.59,4.65.37.68.91.95,1.6.6.68-.36.81-.99.45-1.65-.84-1.56-1.72-3.1-2.56-4.66-.12-.23-.23-.55-.17-.78.41-1.63.35-1.76-1.1-2.09.22-1.39-.01-2.78.23-4.19.24-1.39-.3-2.91-.53-4.58-.84.53-1.61,1.01-2.38,1.5-.09-.11-.21-.28-.33-.44-2.64,1.8-3.09,4.67-1.17,7.25.08.11.2.24.19.36-.07,1.07.63,1.32,1.56,1.4Z"/>
        <path class="cls-1" d="M76.85,88.69c0-7.01-.01-13.88.03-20.74,0-.33.43-.79.77-.95,2.21-1.08,4.54-.83,6.87-.48,1.84.28,3.69.49,5.64.75v20.75c-1.67.62-3.43.46-5.18.34-2.68-.18-5.36-.53-8.13.34ZM82.61,74.09c.54-.28.96-.39,1.24-.66.32-.3.5-.74.74-1.12-.43-.13-.87-.41-1.27-.37-1,.1-1.99.55-2.97.5-2.12-.1-2.94,1.22-3.21,2.76-.1.59-.09,1.5.81,1.46.91-.04,1.06.48,1.3,1.08.54,1.37,1.02,2.76,1.65,4.08.67,1.39,1.47,1.53,2.79.75,1.47-.87,2.96-1.7,4.45-2.53,1.01-.56,1.97-2.32,1.76-3.35-.04-.18-.31-.37-.52-.45-1.08-.37-2.22.11-2.91,1.26-.79,1.32-2.1,1.62-3.48,2.05-.08-.58-.13-.99-.2-1.52.64.08,1.18.26,1.67.18.37-.06.69-.45,1.03-.69-.26-.25-.5-.53-.79-.73-.17-.11-.44-.08-.67-.11.33-.41.7-.7,1.1-.76,1.22-.18,1.67-.94,1.78-2.35-.88.26-1.75.33-2.36.76-.7.49-1.14.34-1.93-.24Z"/>
        <path class="cls-1" d="M84.68,101.68v-10.3c1.87-.18,3.68-.35,5.48-.51,1.2-.11,1.61-.67,1.6-1.95-.07-7.47-.04-14.94-.04-22.41v-1.14h-7.03v-3.88c4.59,1.72,9.2,3.44,14,5.24-1.04,12.88-4.57,24.97-14.01,34.96Z"/>
        <path class="cls-1" d="M66.31,91.45v8.82c-5.65-3.41-13.08-22.75-12.97-33.6,4.31-1.57,8.59-3.14,13.01-4.75,0,.97.03,1.95-.03,2.93-.01.19-.4.48-.63.5-1.7.12-3.4.17-5.24.26,0,.06,0,.4,0,.74,0,7.69,0,15.37-.01,23.06,0,.76.12,1.18.98,1.28,1.59.19,3.17.49,4.9.77Z"/>
        <path class="cls-1" d="M82.92,64.8c-2.39-.17-4.6.07-6.65,1.22-.13.07-.36.06-.49-.02-2.31-1.28-4.77-1.44-7.32-1.08-.1.01-.21-.03-.42-.06,0-1.17-.03-2.35.02-3.53.01-.24.27-.56.51-.7,2.32-1.36,4.65-2.7,7-4.01.23-.13.68-.08.93.06,1.97,1.11,3.92,2.25,5.86,3.41.24.14.53.44.54.68.05,1.32.03,2.64.03,4.02Z"/>
        <path class="cls-1" d="M50.91,62.37c-.04-.11-.07-.22-.11-.34.08.08.16.15.24.23-.04.03-.09.07-.13.11Z"/>
        <path class="cls-1" d="M52.19,62.04s-.05.05-.07.07c-.02-.04-.05-.09-.06-.13,0-.02.04-.04.06-.07.02.04.05.09.07.13Z"/>
        <path class="cls-1" d="M74.15,51.15c.57-.59,1.09-.59,1.49-.01.42.6.24,1.13-.5,1.53-.34-.52-.66-1.01-.99-1.52Z"/>
        <path class="cls-1" d="M74.27,53.5c-.08-.08-.16-.16-.23-.23.08.08.16.16.23.23Z"/>
        <path class="cls-1" d="M74.49,53.72c-.08-.08-.16-.16-.24-.24.08.08.16.16.24.24Z"/>
        <path class="cls-1" d="M69.13,56.19c-.3-.58-.55-1.08-.82-1.63.63-.4,1.15-.41,1.5.19.38.66.13,1.14-.68,1.43Z"/>
        <path class="cls-1" d="M80.18,52.38c.76.35,1,.81.64,1.44-.36.63-.86.68-1.5.16.27-.51.55-1.03.86-1.6Z"/>
        <path class="cls-1" d="M90.47,60.03c-.33-.57-.69-.93-.62-1.1.21-.47.6-.86.91-1.28.2.28.59.61.54.84-.1.46-.45.86-.84,1.54Z"/>
        <path class="cls-1" d="M59.78,100.88c.41-.32.77-.61,1.14-.88.08-.06.19-.09.65-.29-.14.66-.11,1.2-.36,1.49-.46.51-1,.39-1.43-.32Z"/>
        <path class="cls-2" d="M66.97,78.37c-.93-.08-1.63-.34-1.56-1.4,0-.12-.11-.25-.19-.36-1.92-2.59-1.47-5.45,1.17-7.25.12.16.25.33.33.44.77-.49,1.54-.97,2.38-1.5.23,1.67.77,3.19.53,4.58-.24,1.41-.01,2.81-.23,4.19,1.45.33,1.51.45,1.1,2.09-.06.23.05.55.17.78.84,1.56,1.72,3.1,2.56,4.66.36.66.23,1.3-.45,1.65-.69.36-1.23.08-1.6-.6-.85-1.56-1.71-3.11-2.59-4.65-.13-.22-.38-.45-.62-.52-1.43-.41-1.54-.59-1.01-2.11ZM66.01,70.53c-1.17,1.15-1.6,2.98-1.03,4.32.27.62.54,1.31,1.49,1.26-1.16-1.53-1.38-2.75-.72-3.74.26,2.32.96,3.33,2.04,2.91-.59-.85-1.2-1.7-.52-2.91.04.33.01.58.11.74.24.4.54.76.82,1.14.26-.42.76-.84.74-1.25-.05-1.12-.32-2.23-.51-3.34-.1-.05-.19-.1-.29-.14-.64.86-1.27,1.72-1.96,2.65-.06-.51-.12-1.03-.19-1.64ZM69.03,80.46c.85,1.32,1.66,2.58,2.47,3.84.13-.08.26-.15.38-.23-.63-1.35-1.26-2.7-1.93-4.13-.34.19-.6.33-.93.52ZM66.16,77.25c.51.51.93.5,1.87-.08.74-.46.89-.79.68-1.35-.85.48-1.71.96-2.55,1.43ZM70.03,77.96c-.59,1.05-1.45,1.56-2.77,1.42.56.78,1.13.4,1.62.17.64-.31,1.29-.68,1.16-1.58Z"/>
        <path class="cls-2" d="M82.61,74.09c.79.57,1.23.73,1.93.24.61-.43,1.48-.5,2.36-.76-.11,1.41-.55,2.17-1.78,2.35-.4.06-.77.34-1.1.76.23.03.49,0,.67.11.3.19.53.48.79.73-.34.24-.66.63-1.03.69-.5.08-1.03-.1-1.67-.18.07.54.12.94.2,1.52,1.38-.43,2.69-.73,3.48-2.05.69-1.16,1.83-1.64,2.91-1.26.21.07.48.27.52.45.22,1.03-.75,2.79-1.76,3.35-1.49.83-2.98,1.67-4.45,2.53-1.32.78-2.12.63-2.79-.75-.64-1.32-1.12-2.71-1.65-4.08-.24-.6-.39-1.12-1.3-1.08-.9.04-.91-.87-.81-1.46.28-1.54,1.09-2.86,3.21-2.76.98.04,1.97-.4,2.97-.5.41-.04.85.24,1.27.37-.24.38-.43.82-.74,1.12-.28.27-.7.39-1.24.66ZM82.29,75.67s-.05.01-.08.02c.03-.01.06-.02.1-.04.22.4.44.79.66,1.19.11-.09.22-.19.33-.28-.33-.3-.67-.6-1-.89ZM84.64,79.69c-.26.06-.47.09-.67.15-1.34.41-1.36.38-1.67-1.02-.28-1.25-.6-2.5-.95-3.91-.68.43-1.23.74-1.74,1.12-.14.11-.25.45-.19.61.66,1.7,1.32,3.4,2.06,5.07.38.85,1.06.97,1.86.41.6-.43,1.26-.78,1.91-1.19-.22-.45-.41-.83-.61-1.24ZM82.93,73.23c-.06-.06-.11-.12-.17-.18-.81,0-1.63.06-2.43-.01-1.34-.13-2.51.75-2.59,2.08-.01.25.08.6.26.75.1.09.48-.08.7-.2.99-.54,1.98-1.09,2.96-1.65.43-.25.85-.52,1.28-.78ZM87.48,79.78c.39-.27.72-.49.79-.54-.06-.77-.09-1.27-.13-1.76q-1.92.43-.66,2.3ZM83.47,76.87l-.2.12c.13.17.25.33.38.5.07-.05.14-.11.21-.16-.13-.15-.26-.31-.39-.46ZM82.86,77.47c.03-.05.06-.11.1-.16-.12-.07-.25-.13-.37-.2-.03.05-.05.1-.08.15.12.07.24.14.36.21Z"/>
        <path class="cls-1" d="M66.01,70.53c.07.62.13,1.13.19,1.64.69-.93,1.32-1.79,1.96-2.65.1.05.19.1.29.14.18,1.11.45,2.22.51,3.34.02.4-.48.83-.74,1.25-.28-.38-.58-.74-.82-1.14-.1-.17-.07-.42-.11-.74-.68,1.21-.06,2.06.52,2.91-1.08.42-1.78-.59-2.04-2.91-.67.99-.44,2.21.72,3.74-.95.06-1.22-.64-1.49-1.26-.57-1.33-.14-3.17,1.03-4.32Z"/>
        <path class="cls-1" d="M69.03,80.46c.33-.18.59-.33.93-.52.67,1.43,1.3,2.78,1.93,4.13-.13.08-.26.15-.38.23-.81-1.26-1.62-2.52-2.47-3.84Z"/>
        <path class="cls-1" d="M66.16,77.25c.85-.47,1.7-.96,2.55-1.43.2.56.06.89-.68,1.35-.93.58-1.36.59-1.87.08Z"/>
        <path class="cls-1" d="M70.03,77.96c.13.9-.51,1.28-1.16,1.58-.48.23-1.06.61-1.62-.17,1.32.15,2.18-.36,2.77-1.42Z"/>
        <path class="cls-1" d="M84.64,79.69c.2.41.39.79.61,1.24-.66.41-1.31.77-1.91,1.19-.8.56-1.47.44-1.86-.41-.74-1.66-1.4-3.37-2.06-5.07-.06-.16.05-.5.19-.61.51-.38,1.06-.69,1.74-1.12.35,1.42.67,2.66.95,3.91.31,1.41.33,1.43,1.67,1.02.2-.06.41-.09.67-.15Z"/>
        <path class="cls-1" d="M82.93,73.23c-.43.26-.84.54-1.28.78-.98.56-1.96,1.12-2.96,1.65-.22.12-.6.29-.7.2-.17-.15-.27-.5-.26-.75.08-1.33,1.25-2.21,2.59-2.08.8.08,1.62.01,2.43.01.06.06.11.12.17.18Z"/>
        <path class="cls-1" d="M87.48,79.78q-1.27-1.87.66-2.3c.04.49.07.99.13,1.76-.06.04-.39.27-.79.54Z"/>
        <path class="cls-1" d="M82.29,75.66c.33.3.67.6,1,.89-.11.09-.22.19-.33.28-.22-.4-.44-.79-.66-1.19l-.02.02Z"/>
        <path class="cls-1" d="M83.47,76.87c.13.15.26.31.39.46-.07.05-.14.11-.21.16-.13-.17-.25-.33-.38-.5l.2-.12Z"/>
        <path class="cls-1" d="M82.86,77.47c-.12-.07-.24-.14-.36-.21.03-.05.05-.1.08-.15.12.07.25.13.37.2-.03.05-.06.11-.1.16Z"/>
        <path class="cls-1" d="M82.31,75.65s-.06.02-.1.04c.03,0,.05-.01.08-.02,0,0,.02-.02.02-.02Z"/>
      </g>
    </g>
  </g>
</svg>